 <svg version="1.0" xmlns="http://www.w3.org/2000/svg"  width="300.000000pt" height="140.000000pt" viewBox="0 0 300.000000 140.000000"  preserveAspectRatio="xMidYMid meet">  <g transform="translate(0.000000,140.000000) scale(0.100000,-0.100000)" fill="#000000" stroke="none"> <path d="M155 1052 c-3 -3 -5 -128 -5 -279 l0 -273 50 0 50 0 0 115 0 115 40 0 40 0 0 -115 0 -115 50 0 50 0 -2 276 -3 277 -45 1 -45 1 -3 -118 -3 -117 -39 0 -39 0 -3 117 -3 117 -43 1 c-23 1 -44 -1 -47 -3z m54 -43 c13 -17 26 -47 28 -67 2 -27 1 -33 -7 -22 -8 13 -10 13 -10 -2 0 -10 4 -18 9 -18 5 0 5 -15 1 -35 -4 -19 -5 -36 -1 -38 3 -2 0 -2 -7 0 -8 1 -23 4 -35 4 -17 1 -15 3 8 9 l30 8 -27 1 c-37 1 -38 31 -2 31 22 0 24 3 19 23 -4 12 -16 37 -27 56 -10 19 -17 39 -14 46 2 7 -1 18 -7 24 -8 8 -7 11 4 10 7 0 25 -14 38 -30z m27 9 c3 -23 1 -23 -22 3 -19 21 -19 21 0 18 11 -2 20 -12 22 -21z m124 12 c0 -5 -4 -10 -10 -10 -5 0 -10 5 -10 10 0 6 5 10 10 10 6 0 10 -4 10 -10z m60 -9 c0 -10 -15 -25 -35 -34 -33 -16 -35 -16 -35 2 0 10 7 22 16 25 8 3 13 9 11 13 -3 5 6 9 19 9 17 1 24 -3 24 -15z m-3 -48 c0 -18 -14 -33 -32 -33 -5 1 -1 7 9 15 11 8 16 15 10 15 -5 0 -18 -7 -28 -15 -17 -13 -17 -15 -3 -21 10 -3 23 -4 30 -1 8 3 14 -3 14 -15 2 -16 -3 -19 -20 -14 -12 3 -28 6 -34 6 -24 0 -14 45 15 62 34 22 39 22 39 1z m-219 -55 c7 -17 8 -28 2 -28 -6 0 -10 6 -10 13 0 9 -2 9 -9 -1 -7 -11 -9 -10 -14 3 -4 9 -3 13 3 10 11 -7 14 8 3 19 -4 3 -8 14 -9 23 -2 13 -1 14 10 2 7 -8 18 -26 24 -41z m220 -33 c14 -14 -10 -14 -39 0 l-34 15 34 -5 c19 -3 37 -7 39 -10z m-30 -16 c21 -7 30 -17 29 -30 -1 -14 -6 -17 -22 -13 -41 13 -51 26 -15 20 25 -4 31 -3 20 4 -8 5 -23 10 -32 10 -10 0 -18 5 -18 10 0 12 0 12 38 -1z m0 -50 c21 -7 30 -17 29 -30 -2 -23 1 -23 -42 -5 -25 11 -33 19 -29 30 7 19 4 19 42 5z m-99 -12 c25 -1 46 -7 48 -14 5 -15 -13 -17 -22 -3 -9 15 -22 12 -22 -5 0 -10 10 -15 28 -15 33 0 50 -25 43 -61 -4 -21 -3 -22 5 -4 5 11 10 14 10 8 1 -7 10 -13 21 -13 11 0 20 -7 20 -15 0 -10 -10 -15 -30 -15 -24 0 -31 5 -36 28 -10 48 -13 52 -32 52 -21 0 -46 23 -36 32 3 3 0 9 -7 14 -8 5 -10 3 -4 -6 6 -10 4 -11 -11 -5 -10 4 -27 8 -36 9 -10 0 -18 4 -18 7 0 4 -8 10 -17 12 -10 2 -2 2 17 0 19 -3 55 -5 79 -6z m-79 -32 c0 -7 -9 -24 -20 -38 -23 -29 -27 -59 -6 -51 8 3 24 0 37 -6 17 -10 19 -14 8 -21 -18 -11 -32 -11 -25 0 3 5 -1 12 -10 15 -25 10 -11 -18 15 -29 20 -9 22 -16 19 -68 -2 -32 1 -59 7 -61 9 -3 -47 -1 -68 3 -11 2 2 21 14 21 6 0 7 -4 4 -10 -10 -16 11 -12 25 5 11 13 10 14 -6 9 -16 -6 -17 -5 -6 7 19 21 14 34 -6 16 -27 -25 -38 -21 -16 5 10 12 14 18 8 15 -14 -8 -23 91 -16 164 4 40 7 46 23 42 11 -3 19 -11 19 -18z m57 -9 l27 -24 -28 3 c-16 2 -33 8 -39 14 -13 13 3 15 19 4 5 -5 1 0 -9 10 -29 26 -2 20 30 -7z m153 -18 c0 -5 -6 -7 -12 -4 -7 3 -21 9 -30 12 -10 4 -18 10 -18 15 0 4 14 3 30 -2 17 -6 30 -15 30 -21z m-192 -19 c-11 -7 -10 -9 1 -9 8 0 12 -3 8 -6 -3 -3 -15 -3 -26 1 -17 5 -18 9 -8 19 6 8 18 11 25 8 11 -4 11 -6 0 -13z m175 7 c21 -16 22 -23 3 -23 -7 0 -18 9 -25 19 -13 21 -3 23 22 4z m-178 -36 c13 -5 14 -9 5 -9 -8 0 -24 4 -35 9 -13 5 -14 9 -5 9 8 0 24 -4 35 -9z m178 -47 c-13 -2 -33 -2 -45 0 -13 2 -3 4 22 4 25 0 35 -2 23 -4z m5 -20 c-10 -2 -28 -2 -40 0 -13 2 -5 4 17 4 22 1 32 -1 23 -4z m12 -17 c0 -2 -16 -6 -35 -8 -19 -2 -35 0 -35 4 0 4 16 8 35 8 19 0 35 -2 35 -4z m-12 -23 c-10 -2 -18 -12 -18 -22 0 -17 -18 -41 -31 -41 -4 0 -7 9 -6 19 0 11 5 17 11 14 5 -4 7 1 3 10 -6 16 10 25 43 25 10 0 9 -2 -2 -5z m12 -43 c0 -5 -8 -11 -17 -11 -17 -1 -17 -2 0 -6 28 -7 20 -18 -16 -20 -26 -1 -28 0 -12 7 11 5 16 9 11 9 -11 1 13 31 25 31 5 0 9 -4 9 -10z"></path> <path d="M180 1005 c0 -2 9 -19 20 -37 23 -39 27 -30 5 12 -14 27 -25 38 -25 25z"></path> <path d="M370 800 c8 -5 22 -10 30 -10 13 0 13 1 0 10 -8 5 -22 10 -30 10 -13 0 -13 -1 0 -10z"></path> <path d="M484 1051 c-2 -2 -4 -105 -4 -228 0 -183 3 -230 15 -254 34 -64 128 -89 192 -49 59 36 63 54 63 310 l0 230 -27 0 c-16 0 -38 -3 -50 -6 -23 -6 -23 -7 -23 -223 0 -218 -4 -241 -36 -241 -7 0 -20 7 -28 16 -14 13 -16 48 -16 232 l0 217 -41 0 c-22 0 -43 -2 -45 -4z m20 -26 c3 -8 1 -15 -4 -15 -6 0 -10 7 -10 15 0 8 2 15 4 15 2 0 6 -7 10 -15z m29 -40 c-32 -28 -43 -31 -43 -11 0 8 15 26 33 40 25 20 33 22 35 11 2 -8 -9 -26 -25 -40z m191 49 c9 -3 16 -12 16 -20 0 -10 -9 -12 -32 -7 -42 8 -48 13 -17 14 l24 1 -25 8 c-23 7 -23 8 -3 9 12 1 28 -2 37 -5z m0 -40 c20 -8 21 -24 1 -24 -8 0 -15 -5 -15 -11 0 -6 7 -9 15 -5 8 3 15 1 15 -4 0 -13 -21 -12 -40 0 -13 9 -12 13 5 26 19 16 19 16 -7 10 -17 -4 -28 -2 -28 4 0 11 30 13 54 4z m-166 -34 c2 -28 0 -30 -33 -30 -19 0 -35 5 -35 10 0 6 5 10 10 10 6 0 19 9 30 20 26 26 25 26 28 -10z m164 -30 c22 0 20 -22 -3 -28 -11 -3 -11 -1 1 8 13 10 12 11 -3 6 -10 -3 -23 -6 -28 -6 -19 0 -8 -29 21 -53 32 -27 36 -67 9 -75 -8 -3 -11 -1 -6 3 4 5 0 17 -10 27 -18 20 -4 25 15 6 7 -7 12 -10 12 -7 0 3 -11 16 -25 29 -25 23 -25 23 -22 3 1 -12 9 -29 17 -39 14 -16 13 -17 -3 -11 -10 4 -16 3 -13 -1 2 -4 1 -14 -3 -21 -6 -9 -11 -10 -15 -2 -4 6 -3 11 3 11 9 0 6 44 -5 61 -2 4 -1 10 4 13 5 3 7 19 4 36 -3 21 0 30 9 30 11 0 11 3 -1 11 -12 9 -12 10 3 5 10 -3 28 -6 39 -6z m-162 -18 c0 -4 -16 -8 -35 -8 -19 0 -35 4 -35 8 0 4 16 8 35 8 19 0 35 -4 35 -8z m-13 -19 c14 -6 12 -9 -14 -13 l-31 -5 26 -19 c22 -17 25 -17 19 -3 -3 9 -3 17 2 17 5 0 8 -32 8 -70 0 -39 -4 -65 -8 -59 -4 7 -5 17 -3 24 3 6 -8 22 -23 35 l-28 25 23 -26 c12 -14 22 -29 22 -34 0 -4 -10 0 -22 11 l-23 19 23 -26 c26 -30 31 -61 5 -32 -10 10 -15 14 -10 9 12 -17 8 -31 -5 -18 -16 16 -19 114 -4 105 6 -3 18 -11 27 -17 8 -6 2 1 -13 16 -33 32 -35 43 -10 57 21 13 17 12 39 4z m184 -3 c5 0 9 -9 9 -20 0 -11 -5 -20 -11 -20 -5 0 -7 5 -4 10 3 6 -1 10 -10 10 -9 0 -14 4 -11 9 4 5 3 11 -1 14 -5 2 -2 2 5 0 8 -1 18 -3 23 -3z m0 -120 c13 0 8 -73 -5 -82 -19 -13 -29 -9 -16 7 13 16 3 20 -18 7 -9 -6 -4 -16 18 -37 16 -16 30 -36 30 -44 0 -9 -12 -3 -32 18 -41 42 -50 110 -16 119 15 4 17 7 6 14 -9 7 -8 8 5 4 10 -3 23 -6 28 -6z m-171 -61 c0 -5 -14 -15 -31 -21 -19 -7 -27 -13 -19 -18 8 -5 8 -9 -3 -13 -25 -10 -14 34 13 48 30 17 40 18 40 4z m-4 -65 c-3 -25 -2 -43 3 -40 5 3 15 -2 22 -11 10 -12 10 -14 2 -9 -15 8 -17 -3 -4 -22 5 -8 21 -12 37 -10 23 2 29 7 27 25 -2 17 1 21 14 16 11 -4 14 -3 9 5 -4 6 -2 20 3 31 8 14 8 21 -2 24 -8 4 -8 6 0 6 12 1 63 -55 63 -69 0 -12 -52 -72 -57 -66 -3 2 1 14 7 26 8 15 9 25 1 33 -7 7 -12 1 -18 -19 -4 -16 -7 -33 -8 -39 0 -5 -15 -11 -33 -12 -17 -1 -30 3 -26 8 3 5 17 7 32 3 24 -5 25 -4 8 7 -13 8 -28 9 -50 2 -26 -8 -34 -6 -52 11 -27 28 -50 80 -32 73 7 -2 12 -10 10 -16 -1 -7 2 -10 8 -6 16 10 12 35 -6 35 -14 0 -14 3 -4 15 7 9 19 14 27 11 7 -3 13 -1 13 4 0 6 -8 10 -17 11 -15 0 -15 2 2 9 11 5 21 9 23 9 2 1 1 -19 -2 -45z m184 26 c0 -5 -4 -10 -10 -10 -5 0 -10 5 -10 10 0 6 5 10 10 10 6 0 10 -4 10 -10z m-105 -100 c3 -6 -4 -9 -19 -8 -13 1 -22 6 -20 10 7 11 32 10 39 -2z"></path> <path d="M690 730 c-18 -12 -2 -12 25 0 13 6 15 9 5 9 -8 0 -22 -4 -30 -9z"></path> <path d="M687 624 c5 -13 3 -15 -8 -9 -10 7 -8 1 4 -18 10 -15 15 -33 11 -39 -4 -7 -3 -8 5 -4 7 5 9 16 5 28 -4 15 -3 18 6 13 9 -6 9 -3 1 13 -14 27 -33 39 -24 16z"></path> <path d="M1335 1035 c-4 -16 -46 -262 -84 -487 l-8 -48 48 0 c52 0 52 0 64 78 7 41 8 42 45 42 l38 0 7 -60 7 -60 49 0 c41 0 49 3 49 19 0 17 -74 468 -85 516 -4 17 -12 20 -65 20 -53 0 -61 -2 -65 -20z m60 -113 c1 -32 5 -64 8 -72 3 -8 8 -43 12 -77 5 -51 3 -63 -8 -63 -8 0 -20 -6 -26 -14 -10 -11 -8 -17 6 -25 11 -6 13 -11 5 -11 -7 0 -11 -4 -8 -9 9 -13 -19 -21 -35 -9 -11 8 -10 9 4 4 11 -3 16 -2 12 4 -3 6 -15 10 -26 10 -10 0 -19 5 -19 11 0 7 10 9 28 5 20 -5 23 -4 12 4 -13 9 -13 10 0 11 8 0 2 7 -15 14 -20 10 -24 14 -12 15 10 0 16 3 14 8 -3 4 2 13 9 20 13 12 14 10 9 -11 -4 -14 -2 -27 3 -31 9 -5 22 68 22 126 0 15 -10 38 -24 51 -23 23 -25 23 -29 6 -4 -14 0 -19 14 -19 11 0 22 -7 26 -15 8 -21 3 -23 -34 -18 -29 5 -31 7 -23 29 5 13 7 24 4 24 -4 0 -2 6 4 13 6 7 8 24 5 37 -4 14 -2 21 4 17 6 -4 13 -20 17 -37 3 -17 10 -29 15 -26 5 4 1 24 -10 46 -10 21 -19 45 -19 52 0 21 18 -5 34 -47 9 -24 15 -32 15 -20 0 11 -10 39 -23 62 -28 49 -22 68 7 22 13 -20 21 -51 22 -87z m25 47 c0 -10 -4 -19 -10 -19 -5 0 -10 7 -10 15 0 9 -7 30 -16 48 l-15 32 25 -28 c15 -15 26 -37 26 -48z m32 58 c4 -7 8 -21 7 -32 0 -17 -2 -16 -15 8 -19 34 -27 35 -13 1 14 -39 5 -39 -13 -1 -15 32 -15 33 5 35 12 0 25 -4 29 -11z m17 -81 c-2 -2 -18 -7 -34 -11 l-30 -6 24 21 c17 14 27 18 34 11 6 -6 9 -13 6 -15z m1 -31 c0 -8 -3 -15 -7 -15 -5 0 -18 -3 -30 -6 -17 -5 -23 -2 -23 9 0 14 16 23 48 26 6 0 12 -6 12 -14z m-20 -41 l-35 -14 33 6 c20 3 32 1 32 -5 0 -6 -8 -11 -18 -11 -10 0 -22 -3 -25 -7 -9 -8 33 -54 44 -48 4 3 11 0 15 -6 4 -7 3 -9 -3 -6 -6 4 -13 0 -17 -8 -3 -8 -1 -15 4 -15 5 0 14 -9 20 -19 8 -16 5 -30 -15 -67 -14 -26 -25 -48 -25 -49 0 -1 15 0 33 1 l32 3 -30 -8 c-21 -5 -35 -3 -47 7 -10 8 -25 12 -34 8 -12 -5 -15 -2 -10 10 4 9 1 23 -5 30 -6 8 -8 15 -3 15 5 1 16 2 24 3 8 0 14 8 12 17 -1 9 4 16 12 16 8 0 12 -6 8 -15 -4 -11 -1 -13 9 -7 8 5 11 5 6 -1 -5 -5 -14 -9 -20 -9 -7 0 -14 -11 -15 -24 -3 -16 0 -22 10 -18 7 2 12 10 11 16 -2 6 3 10 10 8 7 -1 13 11 15 31 3 29 1 32 -23 32 -17 0 -25 4 -22 13 2 6 10 11 16 10 18 -5 12 11 -10 25 -15 10 -20 21 -16 38 2 13 0 27 -4 30 -24 14 0 31 46 32 12 0 7 -5 -15 -14z m33 -41 c-7 -2 -21 -2 -30 0 -10 3 -4 5 12 5 17 0 24 -2 18 -5z m-113 -13 c9 -6 10 -10 3 -10 -7 0 -10 -10 -8 -22 4 -21 3 -22 -9 -5 -7 9 -21 17 -30 17 -9 0 -16 7 -16 15 0 17 37 20 60 5z m117 -6 c-3 -3 -12 -4 -19 -1 -8 3 -5 6 6 6 11 1 17 -2 13 -5z m-152 -38 c18 -13 18 -14 -3 -36 -27 -29 -28 -74 -3 -99 16 -16 18 -26 11 -55 -4 -20 -6 -36 -4 -36 3 0 0 -9 -6 -19 -7 -13 -19 -19 -37 -18 -38 3 -41 31 -6 62 15 13 23 25 16 25 -7 0 -17 -8 -22 -17 -8 -13 -10 -14 -11 -4 0 8 8 23 18 34 9 11 11 17 4 13 -9 -6 -11 0 -8 21 3 15 8 54 12 85 7 62 10 65 39 44z m100 4 c3 -5 1 -10 -4 -10 -6 0 -11 5 -11 10 0 6 2 10 4 10 3 0 8 -4 11 -10z m-88 -86 c-3 -3 -12 -4 -19 -1 -8 3 -5 6 6 6 11 1 17 -2 13 -5z m163 -19 c0 -8 -4 -15 -10 -15 -5 0 -7 7 -4 15 4 8 8 15 10 15 2 0 4 -7 4 -15z m3 -32 c-7 -2 -19 -2 -25 0 -7 3 -2 5 12 5 14 0 19 -2 13 -5z m-13 -43 c-14 -4 -32 -8 -40 -9 -13 -1 -13 0 0 9 8 5 26 9 40 9 l25 -1 -25 -8z m-20 -30 c-11 -7 -12 -10 -2 -10 7 0 10 -4 7 -10 -10 -16 -22 -12 -22 8 0 17 17 35 26 26 3 -3 -1 -9 -9 -14z m47 4 c3 -8 1 -20 -5 -26 -8 -8 -7 -15 6 -24 9 -8 12 -14 5 -14 -6 0 -15 5 -18 10 -4 7 -12 7 -25 0 -11 -6 -21 -6 -25 -1 -3 5 4 12 15 16 19 6 24 16 21 43 -3 18 19 15 26 -4z"></path> <path d="M1328 813 c6 -2 18 -2 25 0 6 3 1 5 -13 5 -14 0 -19 -2 -12 -5z"></path> <path d="M1291 547 l-25 -32 32 29 c33 31 37 36 25 35 -5 0 -19 -14 -32 -32z"></path> <path d="M1309 533 c-13 -16 -12 -17 4 -4 16 13 21 21 13 21 -2 0 -10 -8 -17 -17z"></path> <path d="M1604 1051 c-2 -2 -4 -127 -4 -278 l0 -273 51 0 52 0 -6 155 c-4 103 -2 157 5 161 10 7 76 -52 67 -60 -3 -3 -19 8 -37 25 -18 16 -32 26 -32 22 0 -4 21 -74 47 -155 l46 -148 54 0 53 0 -2 276 -3 277 -45 1 -45 1 -3 -160 -4 -160 -46 159 -47 159 -49 1 c-26 0 -50 -1 -52 -3z m97 -33 c6 -11 8 -22 5 -25 -3 -4 -1 -12 5 -19 10 -13 7 -16 -24 -27 -10 -4 -16 -3 -13 1 3 5 -7 22 -22 38 -15 17 -24 25 -19 20 10 -13 9 -28 -1 -22 -5 3 -7 -5 -6 -17 1 -12 3 -26 3 -32 1 -5 5 -4 10 4 5 8 7 21 4 30 -5 12 -3 13 6 5 10 -9 10 -17 1 -34 -19 -36 -35 -18 -36 42 l0 55 38 0 c28 0 42 -5 49 -19z m163 7 c14 -11 16 -15 5 -15 -8 0 -10 -3 -4 -8 13 -9 16 -72 4 -72 -6 0 -7 5 -3 11 4 8 -1 9 -17 5 l-24 -7 24 20 c13 12 18 21 12 21 -7 0 -9 5 -6 10 3 6 2 10 -4 10 -5 0 -13 -4 -16 -10 -3 -5 -1 -10 6 -10 8 0 8 -4 -1 -15 -7 -8 -17 -15 -22 -15 -6 0 -5 7 2 15 7 8 8 15 3 15 -15 0 -11 28 4 34 8 3 11 1 8 -4 -3 -6 1 -7 9 -4 23 9 8 26 -15 19 -11 -4 -19 -2 -19 4 0 16 32 13 54 -4z m-147 -104 c-7 -2 -19 -7 -28 -12 -8 -4 -21 -4 -29 1 -11 7 -6 12 20 24 26 11 37 11 42 3 4 -7 2 -14 -5 -16z m145 2 c14 -4 16 -17 14 -76 -2 -40 2 -80 7 -91 7 -14 6 -17 -5 -14 -7 3 -13 13 -13 24 0 10 -4 25 -8 32 -5 7 -3 12 5 12 9 0 9 3 -2 10 -13 8 -13 10 -1 10 11 0 10 4 -5 16 -16 13 -16 15 -1 10 27 -9 20 2 -14 19 -17 9 -29 19 -26 22 3 2 15 -1 27 -7 12 -6 24 -9 28 -6 3 4 -9 12 -26 18 -18 7 -32 19 -32 26 0 10 6 12 18 7 9 -4 25 -9 34 -12z m-182 -26 c8 0 24 4 34 8 14 6 17 5 12 -3 -4 -7 -2 -12 3 -12 6 0 11 -5 11 -12 0 -9 -3 -9 -12 0 -7 7 -19 12 -27 12 -9 -1 -2 -8 14 -17 35 -19 47 -33 40 -50 -2 -7 0 -15 5 -18 6 -4 10 -11 10 -16 0 -6 -18 5 -39 23 -22 18 -38 35 -35 37 2 2 13 -4 24 -14 11 -10 23 -16 26 -12 10 9 -81 57 -109 57 -18 0 -27 5 -27 16 0 13 6 15 28 9 15 -5 34 -8 42 -8z m-13 -34 c15 -6 13 -9 -12 -14 l-30 -7 28 -1 c15 0 27 -5 27 -9 0 -5 -15 -7 -32 -6 -33 3 -33 3 -4 -4 16 -4 31 -12 33 -19 3 -9 -4 -10 -29 -2 -18 5 -34 9 -35 9 -2 0 -3 14 -3 30 0 32 17 38 57 23z m179 -35 c3 -20 -4 -22 -26 -8 -13 9 -13 10 0 10 13 0 13 1 0 11 -13 8 -12 10 4 7 11 -2 20 -11 22 -20z m-6 -28 c16 -10 22 -58 8 -66 -7 -5 -12 11 -5 19 1 2 -4 11 -12 20 -7 10 -10 17 -5 17 5 0 2 5 -6 10 -8 5 -10 10 -5 10 6 0 17 -4 25 -10z m-170 -17 c14 -12 6 -80 -11 -102 -25 -31 -24 -62 2 -89 30 -33 23 -76 -13 -79 -32 -2 -46 13 -28 30 10 10 12 8 6 -7 -5 -16 -4 -17 9 -6 17 14 21 35 5 25 -5 -3 -10 -1 -10 5 0 6 -4 8 -10 5 -6 -4 -10 23 -10 73 0 82 5 94 45 106 11 3 5 4 -12 2 -23 -2 -33 2 -33 12 0 10 9 12 33 8 l32 -5 -32 11 c-40 13 -44 31 -5 22 15 -4 29 -9 32 -11z m100 -62 c0 -13 -29 -8 -34 6 -4 9 -1 12 7 8 6 -4 4 0 -5 8 -10 8 -18 20 -18 28 1 14 50 -35 50 -50z m34 1 c-30 -31 -30 -42 -1 -43 21 0 21 -1 2 -9 -19 -8 -19 -9 -1 -9 11 -1 17 -4 13 -7 -3 -3 -20 -3 -38 1 -23 5 -28 10 -18 16 10 6 11 9 2 9 -21 0 -15 18 8 25 15 5 18 10 10 18 -17 17 -13 31 5 17 13 -11 16 -10 21 9 4 16 8 19 14 10 5 -8 -1 -22 -17 -37z m71 -56 c0 -34 -6 -71 -12 -82 -7 -12 -10 -24 -7 -26 3 -3 -8 -5 -23 -5 -27 0 -27 0 -6 10 21 9 22 11 5 24 -15 13 -15 14 8 9 14 -3 19 -3 13 0 -10 4 -9 9 2 21 8 8 14 24 14 36 l-2 22 -4 -22 c-2 -13 -18 -32 -34 -44 -44 -31 -37 -64 14 -64 40 0 42 -2 27 -25 -8 -12 -10 -12 -10 -1 0 10 -8 12 -29 8 -27 -6 -31 -3 -41 29 -11 33 -10 38 14 63 27 28 35 76 14 83 -21 7 0 25 29 25 28 0 28 -1 28 -61z m-198 -41 c-1 -41 -3 -42 -17 -14 -9 15 -8 24 1 35 16 20 17 19 16 -21z m103 -3 c0 -15 -2 -15 -10 -2 -13 20 -13 33 0 25 6 -3 10 -14 10 -23z m30 14 c0 -3 -4 -8 -10 -11 -5 -3 -10 -1 -10 4 0 6 5 11 10 11 6 0 10 -2 10 -4z"></path> <path d="M1661 999 c13 -20 28 -34 34 -31 5 3 4 7 -3 10 -7 2 -12 8 -12 13 0 6 5 7 10 4 16 -10 12 11 -5 25 -13 11 -14 10 -9 -6 7 -18 6 -18 -15 1 l-23 20 23 -36z"></path> <path d="M2373 1048 c-4 -7 -93 -523 -93 -540 0 -4 22 -8 49 -8 l49 0 8 58 c9 57 9 57 46 60 36 3 37 2 43 -35 14 -87 11 -83 65 -83 49 0 49 1 45 28 -3 15 -21 124 -40 242 -51 316 -39 284 -108 285 -33 0 -61 -3 -64 -7z m47 -64 c19 -58 -8 -103 -28 -46 -5 15 -13 35 -17 45 -4 9 -3 17 3 17 5 0 17 -17 25 -37 9 -21 16 -31 16 -23 1 8 -8 30 -19 48 -24 39 -27 60 -6 42 8 -6 20 -27 26 -46z m70 31 c12 -33 -2 -40 -16 -9 l-13 29 5 -35 5 -35 -16 34 c-8 19 -18 31 -22 28 -3 -4 0 -13 6 -21 7 -8 11 -23 9 -33 -2 -13 -9 -7 -23 23 l-21 42 40 -2 c29 -1 41 -6 46 -21z m10 -58 c0 -7 -12 -18 -27 -25 l-28 -12 27 5 c15 3 30 0 33 -6 9 -13 6 -15 -32 -24 -28 -5 -33 -4 -33 11 0 18 37 64 52 64 4 0 8 -6 8 -13z m-87 -59 c11 2 15 -2 11 -13 -9 -22 -17 -19 -37 13 -15 23 -17 24 -12 5 4 -14 2 -23 -5 -23 -9 0 -9 50 0 80 1 3 7 -11 14 -30 9 -23 19 -34 29 -32z m72 -24 l-30 -14 33 6 c20 3 32 2 32 -5 0 -6 -10 -11 -23 -11 -13 0 -27 -3 -30 -7 -11 -10 34 -52 49 -46 8 3 14 0 14 -5 0 -18 -18 -24 -39 -13 -14 8 -21 8 -24 -2 -3 -6 -6 -1 -7 13 -1 14 -3 39 -5 57 -2 23 2 33 14 36 35 10 44 5 16 -9z m-39 -82 c8 -63 7 -75 -6 -80 -8 -3 -20 -12 -26 -20 -9 -12 -17 -13 -40 -4 l-29 11 29 -2 c33 -2 38 8 50 108 6 50 5 57 -6 43 -15 -20 -68 -14 -68 8 0 10 13 13 43 12 l44 -2 9 -74z m67 41 c-7 -2 -19 -2 -25 0 -7 3 -2 5 12 5 14 0 19 -2 13 -5z m-138 -14 c-18 -8 -17 -9 6 -6 16 2 26 -1 26 -9 0 -9 -10 -11 -31 -7 -38 7 -40 9 -31 22 3 6 16 11 28 10 21 0 21 -1 2 -10z m23 -43 c7 1 8 0 2 -3 -5 -2 -8 -9 -4 -14 3 -5 1 -8 -4 -7 -14 4 -52 -42 -52 -62 0 -10 9 -29 20 -43 28 -35 26 -75 -6 -99 -14 -11 -23 -23 -20 -26 3 -2 13 1 22 9 15 12 17 12 12 -1 -3 -9 -17 -15 -39 -15 -28 0 -33 3 -31 20 2 11 13 31 25 45 l22 25 -22 -19 c-21 -17 -23 -17 -23 -2 0 9 7 19 15 22 8 4 15 10 15 16 0 5 -5 6 -11 2 -7 -4 -9 0 -6 12 3 11 8 37 11 59 15 93 16 95 39 86 12 -5 28 -7 35 -5z m120 -22 c28 -19 28 -30 -2 -85 l-23 -45 36 3 c35 2 36 2 6 -6 l-30 -9 30 -2 c30 -2 30 -2 5 -10 -35 -11 -52 -12 -46 -1 8 12 -31 44 -47 38 -10 -4 -13 1 -9 19 2 14 0 24 -7 24 -6 0 -10 -3 -10 -7 4 -23 -3 -32 -18 -26 -11 4 -14 3 -9 -5 5 -8 2 -10 -9 -5 -13 5 -14 7 -3 14 10 7 9 9 -4 9 -10 0 -18 5 -18 11 0 6 6 9 13 6 46 -19 50 -20 44 -10 -7 12 16 36 26 27 3 -3 14 -1 26 5 13 7 22 8 26 1 3 -5 1 -10 -5 -10 -6 0 -8 -5 -4 -12 6 -10 4 -10 -8 0 -14 11 -16 10 -11 -8 7 -27 24 -21 41 14 18 35 9 56 -23 56 -26 0 -34 15 -12 23 19 8 21 8 45 -9z m-121 -34 c-1 -11 -2 -20 -3 -20 -1 0 -9 3 -18 6 -12 5 -13 9 -3 20 17 19 26 17 24 -6z m107 1 c-9 -9 -34 -9 -34 -1 0 5 9 8 20 7 10 -1 17 -3 14 -6z m46 -51 c0 -5 -4 -10 -10 -10 -5 0 -10 5 -10 10 0 6 5 10 10 10 6 0 10 -4 10 -10z m-3 -26 c-3 -3 -12 -4 -19 -1 -8 3 -5 6 6 6 11 1 17 -2 13 -5z m23 -73 c0 -15 -31 -49 -50 -54 -26 -7 -26 5 1 21 11 7 18 19 16 27 -3 7 -3 15 0 18 6 7 33 -3 33 -12z m-60 -1 c-13 -8 -12 -10 5 -10 15 0 16 -3 7 -12 -10 -10 -15 -10 -22 2 -14 22 -12 30 8 30 14 0 15 -2 2 -10z m60 -50 c0 -5 -2 -10 -4 -10 -3 0 -8 5 -11 10 -3 6 -1 10 4 10 6 0 11 -4 11 -10z"></path> <path d="M2324 549 c-24 -26 -25 -30 -7 -20 13 6 27 20 33 31 15 28 8 25 -26 -11z"></path> <path d="M2634 1051 c-2 -2 -4 -127 -4 -278 l0 -273 96 0 96 0 39 39 39 39 0 196 0 196 -34 38 c-34 37 -35 37 -131 42 -53 3 -99 3 -101 1z m76 -27 c0 -22 -21 -27 -34 -8 -12 16 -13 13 -11 -19 2 -21 -1 -35 -6 -31 -5 3 -9 0 -9 -5 0 -6 14 -11 30 -11 20 0 30 -5 30 -15 0 -19 -59 -21 -61 -2 -5 46 -4 67 4 67 5 0 4 6 -2 14 -9 11 -9 15 1 19 26 9 58 4 58 -9z m50 9 c23 9 35 7 64 -8 43 -23 45 -31 10 -39 -15 -4 -24 -9 -22 -12 3 -2 17 0 31 5 14 5 28 7 31 3 4 -3 -8 -11 -26 -17 -26 -8 -38 -8 -54 2 -12 8 -30 11 -40 8 -10 -4 1 5 26 19 25 14 38 25 29 26 -9 0 -35 -13 -57 -30 -47 -34 -67 -37 -76 -14 -8 22 -7 31 2 17 10 -16 53 11 48 30 -1 6 -1 9 1 6 2 -4 17 -2 33 4z m31 -83 c18 -10 19 -23 19 -173 0 -176 -3 -187 -52 -187 l-28 0 0 185 c0 180 1 185 21 185 11 0 29 -5 40 -10z m64 0 c-27 -12 -43 -12 -25 0 8 5 22 9 30 9 10 0 8 -3 -5 -9z m21 -18 c12 -7 15 -152 3 -152 -3 0 -14 9 -24 20 -19 21 -8 29 12 9 25 -25 6 22 -20 49 -15 15 -27 31 -27 35 0 3 15 11 33 17 l32 10 -32 -3 c-48 -5 -42 12 7 22 3 0 10 -3 16 -7z m-183 -29 c-18 -2 -33 -7 -33 -11 0 -3 12 -19 27 -34 28 -29 41 -88 20 -88 -7 0 -7 -4 1 -12 18 -18 14 -32 -5 -17 -15 13 -15 12 -4 -8 11 -23 6 -29 -21 -24 -5 0 -8 -4 -8 -10 0 -8 -5 -8 -15 1 -10 9 -12 16 -5 25 6 8 6 15 -2 23 -9 9 -9 12 1 12 11 0 11 3 1 15 -10 12 -10 15 1 15 11 0 11 2 -1 10 -20 13 -4 13 21 0 10 -6 19 -16 19 -22 0 -7 -5 -6 -15 2 -8 7 -15 8 -15 2 0 -5 6 -15 13 -21 11 -8 16 -5 25 14 10 21 8 28 -18 54 -18 17 -30 40 -30 55 0 24 3 26 38 24 36 -1 36 -1 5 -5z m20 -20 c-7 -2 -21 -2 -30 0 -10 3 -4 5 12 5 17 0 24 -2 18 -5z m7 -17 c0 -3 -4 -8 -10 -11 -5 -3 -10 -1 -10 4 0 6 5 11 10 11 6 0 10 -2 10 -4z m136 -28 c10 -13 12 -17 4 -10 -17 14 -34 16 -25 2 3 -5 2 -10 -4 -10 -5 0 -9 9 -8 20 2 26 10 25 33 -2z m-175 -25 l24 -26 -32 23 c-34 25 -39 30 -25 30 5 0 19 -12 33 -27z m180 -27 c23 -19 25 -25 13 -30 -9 -3 -20 -4 -25 0 -5 3 -9 0 -9 -6 0 -6 -5 -8 -11 -4 -8 4 -3 12 12 21 19 10 20 13 5 11 -11 -2 -20 4 -21 15 -4 23 2 22 36 -7z m25 -62 c-4 -9 -12 -14 -22 -10 -9 3 -12 2 -9 -5 4 -6 13 -8 21 -5 9 3 14 -2 14 -14 0 -11 -5 -20 -11 -20 -5 0 -8 4 -5 9 3 5 -8 14 -26 20 -35 12 -35 14 7 35 33 17 40 15 31 -10z m-173 -43 c-3 -11 -12 -22 -21 -25 -10 -3 -23 -9 -29 -12 -26 -12 -12 26 15 40 36 20 41 20 35 -3z m151 -12 c16 -13 26 -30 26 -47 l0 -26 -29 28 c-28 27 -47 66 -31 66 4 0 19 -9 34 -21z m-150 -54 c-2 -28 2 -35 17 -35 12 0 19 -7 19 -19 0 -26 15 -34 46 -27 15 4 24 14 24 26 0 11 5 20 10 20 15 0 12 -50 -2 -55 -27 -9 -137 -12 -132 -3 3 4 9 6 13 4 4 -3 8 5 8 16 2 19 0 19 -27 -7 -15 -15 -33 -24 -38 -21 -17 10 -1 44 24 50 17 5 24 13 24 30 0 14 -5 26 -12 28 -14 5 -2 28 15 28 8 0 12 -13 11 -35z m146 -5 c19 -27 20 -32 6 -51 l-14 -21 -4 23 c-4 32 -35 37 -40 7 -4 -28 -41 -32 -46 -5 -2 11 3 17 15 17 24 0 43 19 43 42 0 27 16 22 40 -12z m-172 -20 c-2 -8 -11 -16 -21 -18 -13 -3 -17 3 -17 27 0 29 2 30 20 19 11 -7 19 -20 18 -28z"></path> <path d="M2800 995 c-14 -8 -20 -14 -15 -14 6 0 21 6 35 14 14 8 21 14 15 14 -5 0 -21 -6 -35 -14z"></path> <path d="M2855 880 c10 -11 21 -18 24 -15 3 4 -1 10 -8 14 -11 7 -11 10 0 14 8 3 3 6 -10 6 -23 1 -24 0 -6 -19z"></path> <path d="M2663 736 c0 -17 3 -23 7 -16 6 9 9 9 13 -1 3 -8 6 -9 6 -3 1 5 -5 19 -13 29 -13 18 -13 17 -13 -9z"></path> <path d="M2655 530 c-3 -5 -1 -10 4 -10 6 0 11 5 11 10 0 6 -2 10 -4 10 -3 0 -8 -4 -11 -10z"></path> <path d="M810 775 l0 -275 51 0 52 0 -5 143 c-5 157 -2 155 42 -44 l21 -97 35 -4 c19 -2 38 1 42 6 3 6 18 69 33 141 l27 130 1 -137 1 -138 45 0 45 0 0 275 0 275 -59 0 c-48 0 -61 -3 -65 -17 -10 -34 -56 -288 -56 -309 0 -20 29 -39 53 -35 4 1 3 -8 -3 -18 -6 -11 -10 -24 -9 -28 1 -4 1 -16 0 -25 -3 -40 -110 -7 -112 35 -2 55 3 113 12 122 5 5 9 14 9 19 0 21 -22 -14 -29 -46 -6 -28 -8 -30 -13 -11 -3 13 2 35 14 54 18 29 21 31 30 15 6 -11 6 -27 0 -45 -13 -38 -4 -84 15 -77 9 4 13 1 11 -6 -5 -14 15 -38 31 -38 6 0 11 -4 11 -10 0 -17 -17 -11 -49 16 -32 27 -44 19 -13 -9 26 -24 68 -31 75 -13 4 9 -1 17 -14 21 -10 4 -19 11 -19 16 0 6 9 7 21 4 15 -5 19 -4 15 4 -4 6 -12 11 -17 11 -17 0 -39 27 -39 49 0 21 -46 269 -56 304 -4 14 -17 17 -70 17 l-64 0 0 -275z m35 255 c-3 -5 7 -16 22 -24 34 -18 89 -74 80 -82 -3 -4 -29 10 -57 31 -28 21 -54 35 -57 31 -4 -3 0 -6 8 -6 11 0 11 -2 -1 -10 -13 -9 -13 -10 0 -11 8 -1 20 -1 25 1 6 1 6 -3 -1 -10 -6 -6 -17 -8 -26 -5 -17 7 -21 76 -4 87 15 10 18 10 11 -2z m80 1 c3 -6 -5 -15 -17 -22 -22 -12 -22 -11 -8 6 14 17 14 17 -7 7 -20 -11 -40 -2 -26 12 10 9 51 7 58 -3z m263 -16 c-2 -19 -5 -22 -20 -14 -23 12 -23 23 -1 15 10 -4 14 -4 10 1 -5 4 -22 8 -38 9 -27 2 -28 0 -12 -12 22 -16 10 -18 -19 -3 -27 15 -9 26 43 27 35 1 38 -2 37 -23z m-248 -25 c0 -17 -2 -19 -14 -8 -14 13 -12 28 5 28 5 0 9 -9 9 -20z m195 5 c35 -3 54 -16 52 -36 -2 -23 -10 -24 -28 -2 -12 15 -12 16 4 10 24 -9 21 0 -4 14 -17 9 -20 8 -14 -2 6 -9 3 -10 -11 -5 -10 5 -27 11 -36 13 -10 3 -18 10 -18 15 0 6 8 7 18 3 9 -4 26 -9 37 -10z m10 -42 c30 -19 43 -33 43 -50 0 -33 -21 -46 -36 -22 -14 21 -3 25 18 7 12 -11 12 -10 2 3 -7 9 -31 24 -54 34 -24 11 -44 20 -46 21 -7 4 11 34 21 34 5 0 29 -12 52 -27z m-257 -19 c-1 -5 -10 -9 -18 -10 -8 -1 -22 -4 -31 -8 -10 -5 -16 -2 -16 9 0 9 6 13 16 10 9 -2 23 0 31 5 15 9 24 7 18 -6z m72 -36 c0 -5 -4 -8 -9 -8 -13 0 -71 -59 -71 -71 0 -6 4 -8 9 -5 4 3 6 -5 4 -17 -2 -12 -4 -80 -6 -152 l-2 -129 -31 -2 -31 -2 1 64 c0 58 12 80 24 44 3 -7 0 -10 -7 -6 -18 12 -13 1 12 -22 21 -20 23 -20 24 -3 1 10 -12 31 -28 47 -16 15 -29 34 -29 43 0 10 8 7 28 -12 l27 -26 1 87 c0 69 -2 80 -9 52 -5 -19 -7 -51 -5 -71 2 -21 0 -35 -4 -33 -12 8 -10 86 3 125 6 19 24 50 39 70 22 28 25 35 11 34 -9 0 -21 -4 -28 -8 -6 -4 -18 -4 -27 -1 -9 3 -16 1 -16 -5 0 -6 9 -11 20 -11 23 0 26 -10 8 -28 -13 -13 -14 -20 -26 -102 -8 -64 -21 -56 -19 12 1 25 5 42 8 36 3 -5 9 0 12 12 4 16 2 20 -9 16 -19 -7 -18 4 3 19 15 11 10 40 -6 31 -4 -3 -8 1 -8 9 0 14 43 38 56 31 4 -3 13 -1 20 3 13 9 61 -8 61 -21z m168 13 c7 -4 -5 -7 -27 -6 -27 0 -37 4 -34 13 5 12 30 9 61 -7z m24 -42 l34 -32 -20 -21 c-19 -19 -21 -33 -20 -122 1 -105 5 -124 30 -124 10 0 14 -9 12 -28 -2 -25 -6 -29 -35 -29 -36 0 -40 6 -20 26 6 8 7 11 1 8 -7 -4 -11 19 -12 69 -1 42 3 74 8 74 6 0 9 19 9 43 l-2 42 -8 -40 -7 -40 2 43 c1 23 -2 42 -6 42 -4 0 -5 7 -1 16 3 9 8 11 12 6 3 -6 11 0 17 13 10 20 8 27 -12 46 -28 26 -50 20 -66 -18 -9 -23 -12 -25 -15 -10 -6 25 23 67 46 67 11 0 34 -14 53 -31z m-213 -26 c-22 -25 -22 -26 -1 -9 31 27 33 17 5 -23 -12 -19 -23 -32 -24 -30 -9 56 -7 69 13 83 31 22 35 10 7 -21z m169 -8 c-12 -27 -23 -31 -33 -15 -3 6 2 10 12 10 15 0 16 2 3 10 -13 8 -12 10 3 10 11 0 15 4 11 12 -4 7 -3 8 4 4 8 -5 8 -13 0 -31z m32 1 c0 -3 -4 -8 -10 -11 -5 -3 -10 -1 -10 4 0 6 5 11 10 11 6 0 10 -2 10 -4z m49 -54 c0 -24 -1 -25 -9 -7 -12 28 -12 47 0 40 6 -3 10 -18 9 -33z m-100 19 c15 -10 7 -31 -12 -31 -7 0 -6 4 3 11 10 7 11 9 2 7 -8 -2 -13 -7 -12 -12 1 -5 -4 -13 -12 -18 -9 -6 -8 -8 7 -6 15 2 19 -2 17 -17 -2 -11 -8 -24 -12 -29 -5 -5 -6 0 -3 13 3 13 1 21 -6 21 -7 0 -10 -4 -6 -9 3 -5 1 -12 -4 -15 -5 -4 -12 -2 -15 3 -4 5 -1 13 5 17 8 4 7 9 -2 15 -10 6 -10 9 -2 9 7 0 10 7 7 15 -4 9 0 15 7 15 11 0 11 3 -1 10 -12 8 -12 10 5 10 11 0 26 -4 34 -9z m92 -96 c3 17 5 -5 5 -48 1 -51 -3 -76 -10 -74 -6 2 -10 14 -9 26 2 14 -1 20 -8 15 -8 -5 -8 -1 0 14 13 24 14 35 4 29 -7 -4 -8 109 -2 123 1 3 5 -22 9 -55 4 -47 7 -53 11 -30z m-194 8 c-3 -10 -5 -2 -5 17 0 19 2 27 5 18 2 -10 2 -26 0 -35z m37 -123 c14 0 26 -4 26 -10 0 -5 -9 -10 -20 -10 -25 0 -70 21 -70 32 0 5 9 4 19 -2 11 -5 31 -10 45 -10z m7 -30 c12 0 20 -3 16 -6 -9 -10 -77 5 -77 17 0 6 7 6 19 -1 11 -5 30 -10 42 -10z m-3 -20 c6 0 12 -7 12 -15 0 -24 -47 -19 -61 6 -10 20 -9 21 12 16 13 -4 30 -7 37 -7z"></path> <path d="M1090 953 c8 -3 32 -14 53 -25 20 -10 37 -16 37 -14 0 10 -69 46 -86 45 -14 0 -15 -2 -4 -6z"></path> <path d="M849 568 c25 -28 18 -39 -9 -15 -8 6 -6 2 4 -10 22 -27 33 -29 33 -8 0 8 -12 25 -26 37 l-26 23 24 -27z"></path> <path d="M1145 530 c-3 -5 -2 -10 4 -10 5 0 13 5 16 10 3 6 2 10 -4 10 -5 0 -13 -4 -16 -10z"></path> <path d="M1950 775 l0 -275 50 0 50 0 0 100 0 100 36 0 c45 0 100 32 119 70 10 19 15 59 15 116 l0 86 -39 39 -39 39 -96 0 -96 0 0 -275z m192 248 c8 -7 17 -11 20 -8 3 3 11 -1 18 -10 7 -8 9 -15 5 -15 -4 0 0 -12 10 -26 9 -14 15 -28 12 -30 -3 -3 -15 12 -28 32 -13 21 -25 32 -27 25 -3 -8 -14 -3 -34 16 -27 25 -26 22 8 -24 21 -29 40 -50 43 -47 3 2 -1 10 -7 16 -7 7 -12 17 -12 23 1 11 40 -32 40 -44 0 -4 -11 -8 -25 -9 -16 -1 -25 3 -25 13 0 8 -10 20 -22 26 -13 7 -29 20 -36 31 -15 20 -59 48 -48 29 4 -6 2 -11 -4 -11 -6 0 -8 -4 -5 -10 3 -5 11 -10 16 -10 6 0 7 5 4 10 -11 18 2 10 21 -12 10 -13 15 -20 10 -16 -5 4 -18 3 -28 -3 -14 -8 -23 -8 -31 0 -8 8 -7 11 4 11 10 1 9 5 -5 15 -11 8 -24 15 -30 15 -5 0 -1 -7 10 -15 20 -15 9 -21 -14 -6 -14 8 -13 32 1 42 15 11 144 4 159 -8z m-133 -62 c29 -22 38 -56 13 -46 -9 4 -24 9 -32 12 -13 4 -13 4 0 -6 13 -9 13 -11 -2 -11 -11 0 -16 7 -15 20 1 12 6 18 14 15 36 -14 44 -14 16 1 -18 10 -33 21 -33 26 0 13 13 9 39 -11z m95 -11 c24 -9 26 -14 26 -67 0 -69 -5 -78 -47 -86 l-33 -6 0 84 c0 92 2 95 54 75z m-76 -52 c21 -21 13 -32 -10 -12 l-22 19 21 -35 c13 -22 19 -47 16 -66 -4 -30 -2 -31 27 -28 18 2 35 6 39 8 4 3 19 -8 34 -24 21 -22 24 -29 12 -33 -8 -4 -16 2 -20 14 -7 20 -39 26 -50 9 -10 -17 -25 -11 -18 8 4 12 3 14 -5 7 -6 -6 -13 -36 -15 -67 -2 -32 -6 -60 -10 -64 -6 -7 -7 -4 -10 101 -2 39 -6 75 -10 82 -4 6 -1 14 5 16 9 4 4 14 -14 31 -16 14 -28 27 -28 30 0 4 16 10 41 15 3 0 10 -4 17 -11z m182 -3 c0 -10 -11 -15 -35 -15 -24 0 -35 5 -35 15 0 10 11 15 35 15 24 0 35 -5 35 -15z m-225 -35 c-3 -5 2 -10 12 -11 16 0 17 -1 1 -11 -14 -10 -14 -14 -2 -33 11 -17 12 -32 5 -61 -5 -21 -9 -30 -10 -19 -1 11 -8 31 -17 43 -8 12 -11 22 -5 22 5 0 15 -8 20 -17 6 -10 11 -13 11 -8 0 6 -6 19 -13 30 -16 25 -20 75 -6 75 5 0 7 -4 4 -10z m225 -9 c0 -14 -6 -17 -27 -15 -27 4 -27 3 -3 -4 23 -7 26 -13 22 -42 -1 -5 -18 -10 -38 -10 -44 0 -36 19 9 21 l32 2 -30 6 c-24 5 -30 12 -32 34 -2 25 1 27 32 27 27 0 35 -4 35 -19z m-27 -92 c-8 -8 -16 -8 -30 0 -16 9 -14 10 12 11 21 0 26 -3 18 -11z m-203 -34 c0 -13 5 -25 11 -27 6 -2 13 -19 14 -38 2 -19 5 -37 6 -40 1 -3 2 -11 3 -18 0 -7 7 -16 14 -21 10 -6 8 -14 -8 -34 -22 -27 -15 -37 9 -14 11 10 13 9 9 -3 -3 -9 -18 -16 -36 -17 -37 -2 -41 7 -11 25 12 7 18 16 15 19 -3 3 -12 0 -21 -7 -12 -10 -15 -10 -15 4 0 9 5 16 10 16 14 0 13 47 -1 56 -7 4 -8 20 -4 41 3 19 2 33 -2 30 -5 -3 -9 9 -9 28 0 19 4 31 8 29 4 -3 8 -16 8 -29z m124 19 c20 -8 21 -20 2 -27 -8 -3 -16 2 -19 14 -6 21 -5 22 17 13z m-24 -26 c0 -4 -7 -8 -15 -8 -8 0 -15 4 -15 8 0 5 7 9 15 9 8 0 15 -4 15 -9z m-100 -108 c0 -5 -4 -10 -10 -10 -5 0 -10 5 -10 10 0 6 5 10 10 10 6 0 10 -4 10 -10z"></path> <path d="M1995 1020 c3 -5 11 -10 16 -10 6 0 7 5 4 10 -3 6 -11 10 -16 10 -6 0 -7 -4 -4 -10z"></path> <path d="M2120 1026 c0 -2 8 -10 18 -17 15 -13 16 -12 3 4 -13 16 -21 21 -21 13z"></path> <path d="M2022 720 c0 -19 2 -27 5 -17 2 9 2 25 0 35 -3 9 -5 1 -5 -18z"></path> <path d="M2168 853 c6 -2 18 -2 25 0 6 3 1 5 -13 5 -14 0 -19 -2 -12 -5z"></path> <path d="M1060 396 c0 -9 -4 -14 -10 -11 -5 3 -10 0 -10 -7 -1 -9 -5 -7 -14 5 -13 17 -14 17 -21 0 -7 -17 -8 -17 -15 2 -5 11 -9 14 -9 7 -1 -7 -5 -10 -11 -7 -5 3 -10 -1 -10 -10 0 -9 4 -14 9 -11 5 4 11 0 14 -6 3 -10 7 -10 20 1 13 10 17 10 17 1 0 -9 3 -10 13 -1 8 6 16 8 20 5 3 -3 8 4 12 16 4 12 4 24 1 27 -3 4 -6 -1 -6 -11z"></path> <path d="M1194 398 c-3 -4 -16 -5 -29 -2 -26 6 -69 -12 -60 -27 4 -5 11 -9 16 -9 6 0 7 5 4 10 -3 6 -1 10 4 10 6 0 11 -4 11 -10 0 -18 20 -11 21 8 0 14 2 14 7 2 10 -21 32 -23 33 -2 1 11 4 9 9 -8 8 -24 8 -24 9 -2 1 12 6 22 12 22 6 0 9 -6 6 -14 -6 -15 18 -30 33 -21 12 7 19 45 9 45 -5 0 -9 -9 -9 -21 0 -11 -4 -18 -10 -14 -5 3 -7 12 -3 20 3 8 1 15 -3 16 -5 0 -19 2 -32 3 -13 2 -25 -1 -28 -6z"></path> <path d="M1600 394 c0 -8 -4 -12 -10 -9 -5 3 -10 -1 -10 -9 0 -10 6 -13 15 -10 13 6 22 44 10 44 -3 0 -5 -7 -5 -16z"></path> <path d="M2040 394 c0 -8 -4 -12 -10 -9 -5 3 -10 -1 -10 -9 0 -10 6 -13 15 -10 13 6 22 44 10 44 -3 0 -5 -7 -5 -16z"></path> <path d="M826 384 c-8 -22 -8 -26 3 -20 5 4 12 0 14 -6 3 -7 6 -1 6 15 1 29 -13 37 -23 11z"></path> <path d="M887 387 c-2 -6 2 -18 9 -25 12 -11 14 -8 14 13 0 26 -14 34 -23 12z"></path> <path d="M940 384 c0 -16 -2 -17 -10 -4 -8 13 -10 12 -10 -2 0 -10 5 -18 10 -18 13 0 25 28 16 37 -3 4 -6 -2 -6 -13z"></path> <path d="M1300 385 c-9 -11 -10 -19 -3 -26 8 -8 13 -7 17 0 4 6 2 11 -5 11 -7 0 -4 7 7 15 10 8 14 15 8 15 -6 0 -17 -7 -24 -15z"></path> <path d="M1405 392 c-15 -11 -19 -45 -4 -40 7 2 14 14 16 26 3 24 3 25 -12 14z"></path> <path d="M1430 387 c0 -7 5 -19 10 -27 8 -12 10 -12 11 5 0 11 3 14 6 8 8 -22 33 -15 32 10 -1 19 -2 19 -6 3 -4 -14 -7 -16 -13 -6 -11 17 -40 22 -40 7z"></path> <path d="M1550 391 c0 -4 -11 -6 -25 -3 -18 3 -25 0 -25 -12 0 -10 6 -13 15 -10 8 4 15 1 15 -6 0 -10 3 -10 14 -1 11 9 15 9 19 -1 3 -7 6 -1 6 15 1 15 -3 27 -9 27 -5 0 -10 -4 -10 -9z"></path> <path d="M1650 384 c0 -10 -6 -14 -15 -10 -8 3 -15 1 -15 -5 0 -18 45 -5 48 14 2 9 -1 17 -7 17 -6 0 -11 -7 -11 -16z"></path> <path d="M1683 385 c-3 -9 -3 -18 0 -21 9 -9 27 6 27 22 0 19 -19 18 -27 -1z"></path> <path d="M1750 389 c0 -5 4 -7 10 -4 6 3 7 -1 4 -9 -3 -9 -2 -16 4 -16 5 0 12 9 15 20 4 15 0 20 -14 20 -10 0 -19 -5 -19 -11z"></path> <path d="M1793 385 c-7 -20 12 -34 36 -28 16 4 24 43 9 43 -4 0 -8 -7 -8 -15 0 -8 -5 -15 -11 -15 -5 0 -8 4 -4 9 3 5 1 12 -5 16 -6 3 -13 -1 -17 -10z"></path> <path d="M1860 379 c0 -18 2 -19 15 -9 15 12 12 30 -6 30 -5 0 -9 -10 -9 -21z"></path> <path d="M1920 379 c0 -16 5 -20 20 -16 10 3 21 0 24 -7 2 -6 5 3 5 19 0 27 -1 28 -13 13 -16 -22 -30 -23 -22 -3 3 8 1 15 -4 15 -6 0 -10 -10 -10 -21z"></path> <path d="M2000 384 c0 -16 -2 -17 -10 -4 -8 13 -10 12 -10 -2 0 -10 5 -18 10 -18 13 0 25 28 16 37 -3 4 -6 -2 -6 -13z"></path> <path d="M2073 393 c-16 -6 -17 -33 -2 -33 5 0 7 5 4 10 -9 15 12 12 28 -5 13 -12 17 -12 31 4 18 20 20 31 7 31 -5 0 -12 -8 -14 -17 -4 -15 -5 -15 -6 2 -1 17 -3 18 -11 5 -6 -10 -10 -11 -10 -2 0 13 -6 14 -27 5z"></path> <path d="M2161 378 c-11 -18 -10 -19 10 -13 16 6 20 4 13 -6 -6 -11 -3 -10 15 1 24 16 29 32 12 38 -6 2 -11 -5 -11 -15 -1 -17 -2 -17 -13 -1 -12 15 -14 15 -26 -4z"></path> <path d="M1720 378 c0 -8 7 -15 15 -15 18 0 15 19 -3 25 -7 2 -12 -3 -12 -10z"></path> <path d="M1330 345 c0 -8 2 -15 4 -15 2 0 6 7 10 15 3 8 1 15 -4 15 -6 0 -10 -7 -10 -15z"></path> </g> </svg>
