<?xml version="1.0" encoding="UTF-8"?>
<svg xmlns="http://www.w3.org/2000/svg" xmlns:xlink="http://www.w3.org/1999/xlink" width="130pt" height="130pt" viewBox="0 0 130 130" version="1.1">
<g id="surface1">
<path style=" stroke:none;fill-rule:nonzero;fill:rgb(0%,0%,0%);fill-opacity:1;" d="M 35.914062 29.292969 C 31.5 30.980469 29.808594 36.734375 32.628906 40.457031 C 34.183594 42.492188 36.042969 43.359375 38.8125 43.441406 C 40.675781 43.484375 41.105469 43.617188 40.929688 44.132812 C 40.800781 44.484375 40.28125 45.953125 39.765625 47.378906 C 38.945312 49.546875 38.769531 50.839844 38.769531 55.167969 C 38.769531 60.234375 38.984375 61.308594 40.84375 66.203125 C 41.066406 66.722656 40.71875 66.847656 39.15625 66.933594 C 31.980469 67.199219 29.597656 76.890625 35.824219 80.390625 L 37.558594 81.34375 L 65.421875 81.34375 C 91.691406 81.34375 93.332031 81.300781 94.757812 80.527344 C 99.042969 78.273438 99.820312 72.476562 96.320312 68.972656 C 94.757812 67.410156 91.816406 66.417969 89.875 66.8125 C 88.445312 67.113281 88.445312 67.328125 90.042969 62.960938 C 91.46875 59.195312 91.46875 51.144531 90.042969 47.378906 C 88.492188 43.136719 88.492188 43.097656 89.3125 43.402344 C 90.652344 43.921875 93.941406 42.792969 95.457031 41.28125 C 98.914062 37.820312 98.179688 32.539062 93.851562 29.898438 C 92.378906 28.992188 91.988281 28.992188 64.476562 29.039062 C 49.113281 29.039062 36.257812 29.160156 35.914062 29.292969 Z M 43.183594 30.328125 C 43.097656 30.589844 42.878906 30.761719 42.707031 30.761719 C 42.535156 30.722656 42.101562 30.722656 41.753906 30.722656 C 40.632812 30.722656 41.066406 30.027344 42.234375 29.945312 C 42.878906 29.898438 43.269531 30.074219 43.183594 30.328125 Z M 74.730469 30.722656 C 74.683594 31.628906 73.816406 31.890625 73.339844 31.152344 C 73.214844 30.894531 72.566406 30.722656 71.914062 30.675781 C 71.261719 30.675781 70.355469 30.507812 69.878906 30.285156 C 69.273438 30.027344 69.878906 29.898438 71.914062 29.898438 C 74.550781 29.855469 74.8125 29.945312 74.730469 30.722656 Z M 40.675781 31.371094 C 42.664062 32.410156 43.703125 34.050781 43.703125 36.171875 C 43.703125 37.726562 43.441406 38.382812 42.234375 39.722656 C 40.886719 41.195312 40.542969 41.320312 38.507812 41.320312 C 36.476562 41.320312 36.128906 41.195312 34.789062 39.722656 C 32.324219 36.996094 32.84375 33.53125 36.089844 31.542969 C 37.6875 30.550781 38.984375 30.507812 40.675781 31.371094 Z M 72.304688 31.933594 C 80.011719 34.484375 86.449219 41.320312 88.492188 49.152344 C 89.742188 54 89.132812 61.140625 87.058594 65.164062 L 86.277344 66.636719 L 79.355469 66.765625 L 72.386719 66.847656 L 74.292969 64.992188 C 81.175781 58.332031 79.3125 47.03125 70.703125 42.792969 C 68.621094 41.796875 68.28125 41.753906 56.207031 41.628906 L 43.835938 41.496094 L 44.875 39.507812 C 46.121094 36.957031 46.121094 35.304688 44.828125 32.714844 L 43.785156 30.632812 L 56.597656 30.808594 C 68.363281 30.980469 69.664062 31.066406 72.304688 31.933594 Z M 92.378906 31.328125 C 94.109375 32.0625 95.625 34.269531 95.625 36.128906 C 95.625 39.15625 92.988281 41.539062 89.566406 41.539062 C 87.660156 41.539062 87.449219 41.40625 86.277344 39.765625 C 84.546875 37.253906 80.484375 33.667969 77.539062 32.105469 L 75.070312 30.761719 L 82.992188 30.722656 C 88.917969 30.722656 91.253906 30.894531 92.378906 31.328125 Z M 43.007812 41.796875 C 43.183594 42.1875 43.054688 42.792969 42.792969 43.097656 C 42.402344 43.570312 42.234375 43.570312 41.671875 43.007812 C 41.148438 42.492188 41.105469 42.234375 41.539062 41.753906 C 42.234375 40.929688 42.664062 40.929688 43.007812 41.796875 Z M 61.007812 42.832031 C 61.007812 43.007812 60.488281 43.359375 59.839844 43.65625 C 58.933594 44.089844 58.632812 44.046875 58.367188 43.617188 C 57.722656 42.621094 57.9375 42.359375 59.496094 42.492188 C 60.320312 42.535156 61.007812 42.707031 61.007812 42.832031 Z M 87.75 43.484375 C 87.621094 43.617188 87.359375 43.402344 87.230469 42.96875 C 86.976562 42.359375 87.011719 42.316406 87.449219 42.707031 C 87.75 43.007812 87.882812 43.359375 87.75 43.484375 Z M 55.515625 45.347656 C 52.746094 48.03125 51.320312 51.363281 51.320312 55.253906 C 51.320312 57.9375 51.488281 58.71875 52.792969 61.273438 C 53.871094 63.390625 54.90625 64.691406 56.464844 65.855469 C 60.015625 68.585938 61.355469 68.800781 74.464844 68.800781 L 86.066406 68.800781 L 85.019531 70.617188 C 83.6875 72.949219 83.6875 75.027344 84.980469 77.625 L 86.023438 79.707031 L 73.214844 79.53125 C 61.445312 79.355469 60.140625 79.269531 57.5 78.40625 C 47.511719 75.070312 40.675781 65.769531 40.675781 55.515625 C 40.675781 51.449219 41.40625 47.769531 42.792969 45.085938 L 43.617188 43.484375 L 57.464844 43.484375 Z M 69.925781 44.742188 C 75.203125 47.210938 77.800781 53.390625 75.898438 58.933594 C 72.429688 69.144531 57.378906 69.144531 53.914062 58.933594 C 51.320312 51.363281 56.859375 43.703125 64.90625 43.703125 C 66.933594 43.703125 68.320312 44.007812 69.925781 44.742188 Z M 71.65625 66.847656 C 71.742188 67.847656 71.609375 67.9375 70.09375 67.847656 C 68.238281 67.714844 68.238281 67.714844 70.183594 66.636719 C 70.960938 66.203125 71.609375 65.8125 71.609375 65.8125 C 71.609375 65.769531 71.65625 66.25 71.65625 66.847656 Z M 88.269531 67.5 C 88.613281 68.148438 88.527344 68.410156 87.835938 68.800781 C 87.144531 69.183594 86.886719 69.144531 86.707031 68.585938 C 86.539062 68.238281 86.671875 67.632812 86.976562 67.285156 C 87.660156 66.460938 87.707031 66.460938 88.269531 67.5 Z M 42.832031 67.5 C 42.832031 67.714844 42.535156 67.9375 42.1875 67.9375 C 41.84375 67.9375 41.539062 67.714844 41.539062 67.5 C 41.539062 67.238281 41.84375 67.070312 42.1875 67.070312 C 42.535156 67.070312 42.832031 67.238281 42.832031 67.5 Z M 43.53125 70.574219 C 45.257812 73.082031 49.324219 76.671875 52.269531 78.234375 L 54.738281 79.574219 L 46.816406 79.617188 C 37.910156 79.617188 36.519531 79.3125 35.050781 76.933594 C 32.753906 73.128906 35.527344 68.800781 40.246094 68.800781 C 42.148438 68.800781 42.359375 68.925781 43.53125 70.574219 Z M 95.0625 70.703125 C 96.230469 72 96.492188 72.609375 96.492188 74.25 C 96.492188 75.9375 96.277344 76.457031 95.0625 77.667969 C 94.238281 78.492188 93.074219 79.269531 92.464844 79.394531 C 90.738281 79.828125 89.175781 79.3125 87.539062 77.667969 C 85.632812 75.765625 85.5 73.042969 87.273438 70.960938 C 88.746094 69.183594 89.785156 68.753906 91.949219 69.015625 C 93.246094 69.144531 94.027344 69.574219 95.0625 70.703125 Z M 57.679688 79.574219 C 59.40625 80.222656 59.101562 80.484375 56.640625 80.484375 C 54.824219 80.484375 54.523438 80.390625 54.90625 79.921875 C 55.167969 79.574219 55.253906 79.183594 55.128906 79.058594 C 54.738281 78.707031 56.121094 78.96875 57.679688 79.574219 Z M 88.445312 79.828125 C 89.265625 80.441406 89.222656 80.484375 87.925781 80.484375 C 86.625 80.484375 86.191406 80.09375 86.839844 79.484375 C 87.230469 79.058594 87.492188 79.144531 88.445312 79.828125 Z M 88.445312 79.828125 "/>
<path style=" stroke:none;fill-rule:nonzero;fill:rgb(0%,0%,0%);fill-opacity:1;" d="M 76.585938 91.863281 C 76.585938 92.078125 76.976562 92.335938 77.453125 92.464844 C 78.191406 92.683594 78.320312 93.074219 78.320312 95.019531 C 78.320312 97.054688 78.234375 97.355469 77.453125 97.355469 C 76.976562 97.355469 76.585938 97.53125 76.585938 97.792969 C 76.585938 98.007812 77.453125 98.222656 78.535156 98.222656 C 79.617188 98.222656 80.484375 98.007812 80.484375 97.792969 C 80.484375 97.53125 80.179688 97.355469 79.828125 97.355469 C 79.3125 97.355469 79.183594 96.75 79.183594 94.589844 C 79.183594 91.863281 79.183594 91.816406 77.886719 91.648438 C 77.191406 91.511719 76.585938 91.648438 76.585938 91.863281 Z M 76.585938 91.863281 "/>
<path style=" stroke:none;fill-rule:nonzero;fill:rgb(0%,0%,0%);fill-opacity:1;" d="M 28.859375 92.378906 C 26.957031 94.238281 27.949219 98.222656 30.246094 98.222656 C 31.675781 98.222656 32.800781 97.183594 31.980469 96.707031 C 31.714844 96.535156 31.328125 96.667969 31.113281 96.964844 C 30.507812 97.960938 29.207031 96.839844 29.078125 95.105469 C 28.902344 93.289062 29.898438 92.164062 30.941406 93.03125 C 31.761719 93.722656 32.664062 93.160156 31.980469 92.335938 C 31.328125 91.558594 29.640625 91.558594 28.859375 92.378906 Z M 28.859375 92.378906 "/>
<path style=" stroke:none;fill-rule:nonzero;fill:rgb(0%,0%,0%);fill-opacity:1;" d="M 57.332031 92.464844 C 57.160156 93.03125 56.726562 93.46875 56.425781 93.46875 C 56.078125 93.46875 55.8125 93.636719 55.8125 93.894531 C 55.8125 94.109375 56.078125 94.324219 56.425781 94.324219 C 56.859375 94.324219 57.117188 94.933594 57.199219 96.140625 C 57.332031 97.792969 57.464844 98.007812 58.367188 98.007812 C 58.933594 98.007812 59.496094 97.792969 59.582031 97.488281 C 59.714844 97.183594 59.453125 97.09375 58.890625 97.230469 C 58.109375 97.441406 57.980469 97.269531 57.980469 95.886719 C 57.980469 94.628906 58.152344 94.324219 58.847656 94.324219 C 59.320312 94.324219 59.714844 94.109375 59.714844 93.894531 C 59.714844 93.636719 59.320312 93.46875 58.890625 93.46875 C 58.367188 93.46875 57.980469 93.117188 57.851562 92.464844 L 57.679688 91.511719 Z M 57.332031 92.464844 "/>
<path style=" stroke:none;fill-rule:nonzero;fill:rgb(0%,0%,0%);fill-opacity:1;" d="M 34.617188 93.894531 C 34.617188 94.109375 34.917969 94.324219 35.269531 94.324219 C 35.699219 94.324219 35.914062 94.804688 35.914062 95.839844 C 35.914062 96.878906 35.699219 97.355469 35.269531 97.355469 C 34.917969 97.355469 34.617188 97.53125 34.617188 97.792969 C 34.617188 98.007812 35.390625 98.222656 36.34375 98.222656 C 37.292969 98.222656 38.078125 98.007812 38.078125 97.792969 C 38.078125 97.53125 37.773438 97.355469 37.429688 97.355469 C 36.652344 97.355469 36.5625 95.582031 37.292969 94.847656 C 37.992188 94.152344 38.507812 94.199219 38.507812 94.976562 C 38.507812 95.324219 38.730469 95.625 38.945312 95.625 C 39.203125 95.625 39.375 95.152344 39.375 94.542969 C 39.375 93.375 38.25 93.03125 37.292969 93.984375 C 36.910156 94.371094 36.777344 94.371094 36.777344 93.984375 C 36.777344 93.679688 36.304688 93.46875 35.699219 93.46875 C 35.089844 93.46875 34.617188 93.636719 34.617188 93.894531 Z M 34.617188 93.894531 "/>
<path style=" stroke:none;fill-rule:nonzero;fill:rgb(0%,0%,0%);fill-opacity:1;" d="M 42.1875 94.371094 C 42.359375 94.933594 42.792969 96.058594 43.097656 96.839844 C 43.53125 97.914062 43.570312 98.527344 43.222656 99.175781 C 42.707031 100.128906 42.832031 100.472656 43.570312 100.039062 C 44.132812 99.695312 46.425781 93.851562 46.121094 93.550781 C 45.695312 93.160156 45.042969 93.941406 44.789062 95.191406 C 44.394531 96.878906 43.921875 96.839844 43.441406 95.105469 C 43.222656 94.371094 42.792969 93.679688 42.449219 93.550781 C 42.015625 93.421875 41.972656 93.636719 42.1875 94.371094 Z M 42.1875 94.371094 "/>
<path style=" stroke:none;fill-rule:nonzero;fill:rgb(0%,0%,0%);fill-opacity:1;" d="M 48.894531 96.75 C 48.894531 98.78125 49.066406 99.953125 49.367188 99.953125 C 49.628906 99.953125 49.933594 99.566406 50.0625 99.085938 C 50.191406 98.570312 50.667969 98.222656 51.234375 98.222656 C 52.488281 98.222656 53.222656 97.441406 53.222656 96.140625 C 53.222656 94.238281 52.488281 93.503906 50.625 93.550781 L 48.894531 93.550781 Z M 51.925781 94.976562 C 52.613281 95.800781 52.050781 97.355469 51.015625 97.355469 C 50.410156 97.355469 50.191406 97.054688 50.191406 96.140625 C 50.191406 94.285156 50.929688 93.804688 51.925781 94.976562 Z M 51.925781 94.976562 "/>
<path style=" stroke:none;fill-rule:nonzero;fill:rgb(0%,0%,0%);fill-opacity:1;" d="M 63.433594 94.152344 C 62.609375 94.933594 62.523438 96.964844 63.257812 97.703125 C 63.5625 98.007812 64.296875 98.222656 64.90625 98.222656 C 66.332031 98.222656 67.070312 97.488281 67.070312 96.015625 C 67.070312 94.628906 66.070312 93.46875 64.90625 93.46875 C 64.476562 93.46875 63.78125 93.769531 63.433594 94.152344 Z M 65.769531 94.976562 C 66.460938 95.800781 65.898438 97.355469 64.90625 97.355469 C 63.910156 97.355469 63.34375 95.800781 64.039062 94.976562 C 64.34375 94.628906 64.734375 94.324219 64.90625 94.324219 C 65.074219 94.324219 65.464844 94.628906 65.769531 94.976562 Z M 65.769531 94.976562 "/>
<path style=" stroke:none;fill-rule:nonzero;fill:rgb(0%,0%,0%);fill-opacity:1;" d="M 69.664062 95.324219 C 69.664062 97.617188 70.222656 98.222656 72.347656 98.222656 L 73.992188 98.222656 L 73.992188 95.839844 C 73.992188 94.066406 73.816406 93.46875 73.382812 93.46875 C 72.949219 93.46875 72.691406 94.066406 72.609375 95.277344 C 72.519531 96.621094 72.261719 97.183594 71.742188 97.269531 C 71.089844 97.398438 70.960938 97.09375 70.960938 95.457031 C 70.960938 93.984375 70.789062 93.46875 70.3125 93.46875 C 69.839844 93.46875 69.664062 93.941406 69.664062 95.324219 Z M 69.664062 95.324219 "/>
<path style=" stroke:none;fill-rule:nonzero;fill:rgb(0%,0%,0%);fill-opacity:1;" d="M 84.203125 94.152344 C 83.382812 94.933594 83.296875 96.964844 84.03125 97.703125 C 84.335938 98.007812 85.066406 98.222656 85.671875 98.222656 C 87.101562 98.222656 87.835938 97.488281 87.835938 96.015625 C 87.835938 94.628906 86.839844 93.46875 85.671875 93.46875 C 85.242188 93.46875 84.546875 93.769531 84.203125 94.152344 Z M 86.539062 94.976562 C 87.230469 95.800781 86.671875 97.355469 85.671875 97.355469 C 84.683594 97.355469 84.113281 95.800781 84.808594 94.976562 C 85.109375 94.628906 85.5 94.324219 85.671875 94.324219 C 85.851562 94.324219 86.234375 94.628906 86.539062 94.976562 Z M 86.539062 94.976562 "/>
<path style=" stroke:none;fill-rule:nonzero;fill:rgb(0%,0%,0%);fill-opacity:1;" d="M 90.863281 94.324219 C 89.785156 96.320312 90.824219 98.570312 92.597656 98.097656 C 93.769531 97.792969 93.679688 98.613281 92.515625 99.042969 C 91.648438 99.390625 91.601562 99.480469 92.292969 99.734375 C 93.894531 100.386719 94.324219 99.695312 94.324219 96.578125 L 94.324219 93.589844 L 92.816406 93.550781 C 91.730469 93.503906 91.167969 93.722656 90.863281 94.324219 Z M 93.246094 95.886719 C 93.246094 96.707031 92.988281 97.183594 92.515625 97.269531 C 91.601562 97.441406 91.035156 95.800781 91.777344 94.933594 C 92.554688 93.984375 93.246094 94.457031 93.246094 95.886719 Z M 93.246094 95.886719 "/>
<path style=" stroke:none;fill-rule:nonzero;fill:rgb(0%,0%,0%);fill-opacity:1;" d="M 98.097656 93.722656 C 97.355469 94.503906 97.832031 95.667969 99.085938 96.105469 C 100.816406 96.707031 100.769531 97.53125 99.042969 97.183594 C 98.097656 97.007812 97.792969 97.09375 97.914062 97.488281 C 98.007812 97.746094 98.746094 98.007812 99.566406 98.007812 C 100.769531 98.007812 101.082031 97.832031 101.164062 97.007812 C 101.296875 96.230469 101.035156 95.886719 99.996094 95.496094 C 98.394531 94.894531 98.222656 94.199219 99.734375 94.417969 C 100.296875 94.503906 100.816406 94.324219 100.90625 94.109375 C 101.035156 93.589844 98.570312 93.289062 98.097656 93.722656 Z M 98.097656 93.722656 "/>
</g>
</svg>
