<?xml version="1.0" encoding="UTF-8"?>
<svg xmlns="http://www.w3.org/2000/svg" xmlns:xlink="http://www.w3.org/1999/xlink" width="130pt" height="130pt" viewBox="0 0 130 130" version="1.1">
<g id="surface1">
<path style=" stroke:none;fill-rule:nonzero;fill:rgb(0%,0%,0%);fill-opacity:1;" d="M 59.585938 20.109375 C 59.363281 20.191406 58.289062 20.496094 57.199219 20.800781 C 52.863281 21.96875 47.753906 24.484375 44.285156 27.085938 C 39.304688 30.808594 34.410156 38.390625 32.632812 45.0625 C 31.589844 48.882812 31.589844 57.636719 32.632812 61.539062 C 33.28125 64.003906 36.53125 71.367188 37.222656 71.9375 C 37.355469 72.0625 38.308594 73.234375 39.304688 74.539062 C 43.984375 80.640625 51.652344 85.0625 59.800781 86.410156 C 62.917969 86.929688 69.511719 86.582031 73.015625 85.714844 C 74.234375 85.410156 75.3125 85.238281 75.53125 85.28125 C 75.707031 85.320312 75.835938 85.152344 75.835938 84.9375 C 75.835938 84.671875 76.265625 84.5 76.785156 84.5 C 77.5625 84.5 83.375 81.382812 84.0625 80.597656 C 84.195312 80.46875 84.976562 79.863281 85.800781 79.300781 C 92.386719 74.835938 97.710938 64.484375 98.238281 55.207031 C 98.667969 47.449219 96.636719 40.515625 91.863281 33.585938 C 90.308594 31.332031 85.363281 26.4375 84.632812 26.4375 C 84.328125 26.4375 84.0625 26.304688 84.0625 26.085938 C 84.0625 25.652344 77.609375 22.402344 74.3125 21.191406 C 72.238281 20.457031 70.542969 20.238281 65.863281 20.109375 C 62.660156 20.015625 59.839844 20.015625 59.585938 20.109375 Z M 73.449219 21.839844 C 77.347656 22.921875 81.941406 25.308594 85.191406 27.910156 C 97.109375 37.441406 100.792969 53.644531 94.207031 67.46875 C 91.257812 73.664062 85.410156 79.515625 79.167969 82.511719 C 60.058594 91.738281 37.441406 80.511719 33.191406 59.714844 C 29.640625 42.382812 41.082031 25.042969 58.457031 21.449219 C 62.097656 20.667969 69.941406 20.886719 73.449219 21.839844 Z M 73.449219 21.839844 "/>
<path style=" stroke:none;fill-rule:nonzero;fill:rgb(0%,0%,0%);fill-opacity:1;" d="M 65.085938 24.089844 L 65 26.738281 L 62.402344 26.820312 C 55.640625 26.996094 47.839844 31.457031 43.464844 37.613281 C 40.644531 41.511719 39.171875 45.414062 38.5625 50.308594 C 38.089844 53.949219 38.136719 54.992188 38.789062 58.109375 C 41.035156 69.335938 49.3125 77.5625 60.277344 79.472656 C 62.226562 79.820312 64.089844 79.988281 64.390625 79.863281 C 64.867188 79.691406 65 80.292969 65.085938 82.375 L 65.132812 85.152344 L 65.390625 82.589844 C 65.609375 80.429688 65.78125 79.988281 66.515625 79.949219 C 71.289062 79.558594 75.265625 78.210938 79.300781 75.613281 C 87.1875 70.542969 91.609375 62.488281 91.476562 53.386719 C 91.390625 46.929688 89.660156 41.6875 86.105469 37.089844 C 81.597656 31.375 76.136719 28.207031 68.382812 26.863281 L 65.476562 26.347656 L 65.304688 23.917969 L 65.171875 21.449219 Z M 70.847656 27.949219 C 78.347656 29.902344 85.152344 35.273438 88.1875 41.640625 C 90.484375 46.585938 91.171875 49.746094 90.867188 54.597656 C 90.484375 61.578125 88.1875 66.605469 83.199219 71.632812 C 77.652344 77.179688 71.0625 79.691406 63.355469 79.167969 C 52.910156 78.476562 44.160156 71.804688 40.429688 61.617188 C 38.957031 57.679688 38.609375 51.5625 39.609375 47.664062 C 42.039062 38.042969 49.792969 30.160156 59.015625 27.910156 C 62.226562 27.167969 67.773438 27.167969 70.847656 27.949219 Z M 70.847656 27.949219 "/>
<path style=" stroke:none;fill-rule:nonzero;fill:rgb(0%,0%,0%);fill-opacity:1;" d="M 65.085938 33.625 L 65 39.738281 L 67.558594 40.261719 C 75.007812 41.734375 79.863281 49.441406 77.789062 56.589844 C 76.222656 62.054688 71.5 66.167969 66.605469 66.429688 L 65 66.515625 L 65 72.761719 C 65 76.179688 65.132812 78.910156 65.257812 78.78125 C 65.5625 78.4375 65.78125 77.261719 65.820312 75.746094 C 65.863281 74.835938 66.125 74.539062 67.082031 74.402344 C 68.25 74.234375 68.25 74.234375 66.949219 74.140625 L 65.609375 74.097656 L 65.691406 71.023438 C 65.738281 69.335938 65.910156 67.8125 66.125 67.640625 C 66.339844 67.46875 67.773438 66.949219 69.335938 66.515625 C 71.710938 65.820312 72.585938 65.257812 74.835938 63.050781 C 77.484375 60.410156 77.742188 59.886719 78.78125 55.207031 C 80.339844 48.097656 74.140625 39.996094 66.558594 39.304688 C 65.5625 39.210938 65.210938 37.011719 65.996094 36.007812 C 66.300781 35.617188 66.300781 35.492188 66.042969 35.664062 C 65.738281 35.835938 65.5625 35.3125 65.5625 34.144531 L 65.5625 32.414062 L 67.859375 32.671875 C 69.113281 32.804688 70.503906 33.0625 70.9375 33.238281 C 71.367188 33.363281 71.585938 33.320312 71.367188 33.152344 C 71.195312 32.9375 69.855469 32.585938 68.335938 32.289062 L 65.652344 31.808594 L 65.390625 29.6875 C 65.210938 28.339844 65.132812 29.902344 65.085938 33.625 Z M 65.085938 33.625 "/>
<path style=" stroke:none;fill-rule:nonzero;fill:rgb(0%,0%,0%);fill-opacity:1;" d="M 59.363281 32.671875 C 55.941406 33.667969 53.214844 35.1875 50.484375 37.738281 C 43.335938 44.457031 41.734375 54.902344 46.457031 63.832031 C 48.011719 66.734375 52 70.636719 55.078125 72.152344 C 57.542969 73.449219 61.617188 74.539062 63.484375 74.492188 C 64.21875 74.492188 63.441406 74.1875 61.75 73.886719 C 55.765625 72.761719 51.136719 69.808594 47.886719 65.085938 C 40.214844 53.820312 44.9375 38.828125 57.71875 33.761719 C 58.9375 33.28125 61.058594 32.710938 62.359375 32.542969 C 64.484375 32.242188 64.5625 32.152344 63.050781 32.152344 C 62.097656 32.152344 60.449219 32.367188 59.363281 32.671875 Z M 59.363281 32.671875 "/>
<path style=" stroke:none;fill-rule:nonzero;fill:rgb(0%,0%,0%);fill-opacity:1;" d="M 71.9375 33.363281 C 71.9375 33.585938 72.152344 33.800781 72.410156 33.800781 C 72.625 33.800781 72.714844 33.585938 72.585938 33.363281 C 72.457031 33.109375 72.238281 32.9375 72.109375 32.9375 C 72.015625 32.9375 71.9375 33.109375 71.9375 33.363281 Z M 71.9375 33.363281 "/>
<path style=" stroke:none;fill-rule:nonzero;fill:rgb(0%,0%,0%);fill-opacity:1;" d="M 76.957031 36.359375 C 78.863281 37.699219 80.597656 39.390625 81.6875 40.910156 C 82.589844 42.25 83.414062 43.246094 83.542969 43.113281 C 83.890625 42.765625 80.511719 38.5625 78.738281 37.136719 C 76.699219 35.539062 74.707031 34.234375 74.273438 34.234375 C 74.097656 34.234375 75.3125 35.1875 76.957031 36.359375 Z M 76.957031 36.359375 "/>
<path style=" stroke:none;fill-rule:nonzero;fill:rgb(0%,0%,0%);fill-opacity:1;" d="M 61.664062 39.863281 C 59.363281 40.339844 55.460938 42.8125 54.035156 44.71875 C 52.257812 47.058594 51.003906 51.347656 51.261719 54.339844 C 51.5625 57.71875 53.644531 61.921875 55.941406 63.738281 C 57.847656 65.257812 62.097656 67.164062 63.484375 67.125 C 63.957031 67.125 63.089844 66.691406 61.539062 66.167969 C 58.242188 65.042969 55.902344 63.355469 54.164062 60.929688 C 50.570312 55.640625 50.957031 49.226562 55.207031 44.332031 C 56.808594 42.507812 60.582031 40.300781 62.140625 40.300781 C 62.660156 40.300781 63.355469 40.085938 63.699219 39.863281 C 64.4375 39.390625 64.179688 39.390625 61.664062 39.863281 Z M 61.664062 39.863281 "/>
<path style=" stroke:none;fill-rule:nonzero;fill:rgb(0%,0%,0%);fill-opacity:1;" d="M 52.820312 41.46875 C 52.257812 42.164062 52.304688 42.207031 52.996094 41.640625 C 53.386719 41.339844 53.734375 40.988281 53.734375 40.910156 C 53.734375 40.558594 53.386719 40.777344 52.820312 41.46875 Z M 52.820312 41.46875 "/>
<path style=" stroke:none;fill-rule:nonzero;fill:rgb(0%,0%,0%);fill-opacity:1;" d="M 65.085938 43.636719 C 65 46.714844 65.042969 46.800781 66.042969 46.800781 C 67.253906 46.800781 69.589844 48.3125 70.71875 49.875 C 73.320312 53.386719 70.71875 59.28125 66.261719 59.929688 C 65.257812 60.105469 65.210938 60.277344 65.171875 63.089844 C 65.132812 66.042969 65.132812 66.042969 65.304688 63.441406 L 65.476562 60.792969 L 67.734375 59.886719 C 72.585938 57.847656 73.753906 52.515625 70.285156 48.617188 C 69.636719 47.886719 68.292969 47.058594 67.292969 46.714844 L 65.476562 46.152344 L 65.304688 43.335938 L 65.171875 40.515625 Z M 65.085938 43.636719 "/>
<path style=" stroke:none;fill-rule:nonzero;fill:rgb(0%,0%,0%);fill-opacity:1;" d="M 84.5 45.9375 C 85.0625 47.363281 85.625 50.011719 85.800781 52.4375 L 86.191406 56.550781 L 86.058594 52.4375 C 85.929688 48.578125 85.109375 45.195312 83.984375 43.984375 C 83.761719 43.722656 83.984375 44.636719 84.5 45.9375 Z M 84.5 45.9375 "/>
<path style=" stroke:none;fill-rule:nonzero;fill:rgb(0%,0%,0%);fill-opacity:1;" d="M 59.625 48.792969 C 58.632812 49.792969 58.757812 50.089844 59.800781 49.1875 C 60.277344 48.75 60.664062 48.3125 60.664062 48.234375 C 60.664062 47.929688 60.277344 48.140625 59.625 48.792969 Z M 59.625 48.792969 "/>
<path style=" stroke:none;fill-rule:nonzero;fill:rgb(0%,0%,0%);fill-opacity:1;" d="M 85.410156 57.457031 C 85.410156 57.9375 85.542969 58.0625 85.667969 57.71875 C 85.800781 57.414062 85.761719 57.027344 85.625 56.894531 C 85.496094 56.722656 85.363281 56.984375 85.410156 57.457031 Z M 85.410156 57.457031 "/>
<path style=" stroke:none;fill-rule:nonzero;fill:rgb(0%,0%,0%);fill-opacity:1;" d="M 59.363281 57.808594 C 59.363281 57.890625 59.714844 58.242188 60.144531 58.542969 C 60.792969 59.109375 60.839844 59.0625 60.277344 58.367188 C 59.714844 57.679688 59.363281 57.457031 59.363281 57.808594 Z M 59.363281 57.808594 "/>
<path style=" stroke:none;fill-rule:nonzero;fill:rgb(0%,0%,0%);fill-opacity:1;" d="M 84.847656 59.839844 C 83.457031 63.875 79.777344 68.597656 76.441406 70.679688 C 74.792969 71.671875 74.445312 72.238281 75.964844 71.457031 C 77.867188 70.414062 81.039062 67.429688 82.511719 65.257812 C 83.9375 63.136719 86.058594 58.5 85.542969 58.5 C 85.410156 58.5 85.109375 59.109375 84.847656 59.839844 Z M 84.847656 59.839844 "/>
<path style=" stroke:none;fill-rule:nonzero;fill:rgb(0%,0%,0%);fill-opacity:1;" d="M 52 64.308594 C 52 64.390625 52.347656 64.742188 52.78125 65.042969 C 53.429688 65.609375 53.472656 65.5625 52.910156 64.867188 C 52.347656 64.179688 52 63.957031 52 64.308594 Z M 52 64.308594 "/>
<path style=" stroke:none;fill-rule:nonzero;fill:rgb(0%,0%,0%);fill-opacity:1;" d="M 71.710938 73.015625 C 70.636719 73.535156 70.589844 73.625 71.5 73.410156 C 72.714844 73.105469 74.097656 72.410156 73.449219 72.410156 C 73.234375 72.410156 72.457031 72.667969 71.710938 73.015625 Z M 71.710938 73.015625 "/>
<path style=" stroke:none;fill-rule:nonzero;fill:rgb(0%,0%,0%);fill-opacity:1;" d="M 68.8125 73.96875 C 69.070312 74.058594 69.589844 74.058594 69.894531 73.96875 C 70.160156 73.839844 69.941406 73.753906 69.335938 73.753906 C 68.726562 73.753906 68.507812 73.839844 68.8125 73.96875 Z M 68.8125 73.96875 "/>
<path style=" stroke:none;fill-rule:nonzero;fill:rgb(0%,0%,0%);fill-opacity:1;" d="M 23.265625 91.78125 C 22.664062 92.472656 22.539062 93.640625 22.539062 98.886719 C 22.539062 104.4375 22.617188 105.261719 23.3125 105.863281 C 24.441406 106.902344 25.042969 106.773438 25.914062 105.386719 C 26.4375 104.5625 26.957031 104.257812 27.644531 104.347656 C 28.207031 104.4375 28.945312 104.257812 29.335938 103.914062 C 29.902344 103.484375 29.988281 103.484375 29.726562 103.914062 C 29.335938 104.609375 30.550781 106.597656 31.375 106.597656 C 31.679688 106.597656 32.242188 106.253906 32.671875 105.777344 C 33.28125 105.085938 33.363281 104.085938 33.28125 98.542969 L 33.152344 92.125 L 31.984375 91.476562 C 30.894531 90.828125 30.722656 90.867188 29.726562 91.820312 C 29.078125 92.429688 28.597656 93.207031 28.597656 93.558594 C 28.597656 93.945312 28.429688 94.554688 28.207031 94.859375 C 27.863281 95.375 27.734375 95.207031 27.472656 94.207031 C 27.125 92.644531 25.652344 91 24.699219 91 C 24.308594 91 23.660156 91.347656 23.265625 91.78125 Z M 26.820312 96.636719 C 27.429688 98.886719 27.988281 100.445312 28.082031 100.140625 C 28.164062 99.839844 28.6875 98.015625 29.207031 96.113281 C 29.988281 93.125 30.292969 92.558594 31.113281 92.429688 C 32.0625 92.300781 32.0625 92.300781 32.0625 98.800781 C 32.0625 104.390625 31.984375 105.300781 31.375 105.300781 C 30.808594 105.300781 30.722656 104.5625 30.855469 100.097656 C 30.984375 94.6875 30.765625 94.117188 29.941406 97.710938 C 28.8125 102.355469 28.558594 103.136719 27.949219 103.136719 C 27.386719 103.136719 26.171875 99.753906 25.695312 96.71875 C 25.179688 93.734375 24.914062 95.207031 25.042969 100.140625 C 25.179688 104.609375 25.136719 105.300781 24.527344 105.300781 C 23.917969 105.300781 23.835938 104.4375 23.835938 98.800781 C 23.835938 92.339844 23.835938 92.300781 24.785156 92.429688 C 25.5625 92.558594 25.914062 93.207031 26.820312 96.636719 Z M 26.820312 96.636719 "/>
<path style=" stroke:none;fill-rule:nonzero;fill:rgb(0%,0%,0%);fill-opacity:1;" d="M 35.921875 92.261719 C 34.488281 93.6875 34.277344 95.464844 35.402344 96.71875 C 36.054688 97.457031 36.054688 97.542969 35.402344 98.28125 C 34.886719 98.839844 34.664062 99.886719 34.664062 101.746094 C 34.664062 103.867188 34.839844 104.609375 35.664062 105.558594 C 36.613281 106.6875 36.792969 106.6875 39.609375 106.429688 C 43.207031 106.035156 43.335938 105.777344 43.335938 99.410156 C 43.335938 92.777344 42.382812 91 38.789062 91 C 37.613281 91 36.875 91.347656 35.921875 92.261719 Z M 41.253906 93.035156 C 41.945312 93.640625 42.039062 94.460938 42.039062 99.625 C 41.992188 104.652344 41.902344 105.386719 41.429688 104.738281 C 40.910156 104.085938 40.777344 104.085938 40.300781 104.652344 C 39.996094 104.996094 39.132812 105.300781 38.308594 105.300781 C 36.488281 105.300781 35.539062 104 35.539062 101.53125 C 35.539062 99.058594 36.660156 97.9375 39.042969 97.9375 L 40.777344 97.9375 L 40.644531 95.855469 C 40.515625 93.8125 40.515625 93.8125 39 93.8125 C 37.660156 93.8125 37.484375 93.945312 37.355469 94.988281 C 37.179688 96.589844 35.960938 96.589844 35.960938 95.03125 C 35.960938 94.421875 36.265625 93.511719 36.707031 93.082031 C 37.570312 92.085938 40.167969 92.042969 41.253906 93.035156 Z M 38.828125 96.503906 C 38.347656 96.984375 38.089844 96.332031 38.4375 95.511719 C 38.742188 94.726562 38.789062 94.726562 38.914062 95.464844 C 39 95.894531 38.957031 96.375 38.828125 96.503906 Z M 38.828125 96.503906 "/>
<path style=" stroke:none;fill-rule:nonzero;fill:rgb(0%,0%,0%);fill-opacity:1;" d="M 37.355469 99.753906 C 36.613281 100.492188 36.707031 102.957031 37.484375 103.742188 C 38.867188 105.085938 40.734375 103.4375 40.734375 100.882812 C 40.734375 99.320312 40.691406 99.234375 39.304688 99.234375 C 38.523438 99.234375 37.660156 99.449219 37.355469 99.753906 Z M 39 101.707031 C 39 102.613281 38.867188 102.738281 38.609375 102.308594 C 38.390625 101.964844 38.308594 101.441406 38.4375 101.097656 C 38.789062 100.1875 39 100.445312 39 101.707031 Z M 39 101.707031 "/>
<path style=" stroke:none;fill-rule:nonzero;fill:rgb(0%,0%,0%);fill-opacity:1;" d="M 45.457031 92.261719 C 44.199219 93.511719 44.199219 93.558594 44.199219 98.714844 C 44.199219 103.695312 44.238281 104 45.328125 105.261719 C 46.28125 106.429688 46.761719 106.597656 48.445312 106.597656 C 50.699219 106.597656 51.089844 106.429688 52.132812 104.863281 C 53.085938 103.484375 53.085938 101.707031 52.042969 100.792969 C 51.089844 99.929688 50.136719 100.234375 49.402344 101.660156 C 48.402344 103.484375 48.097656 102.832031 48.097656 98.800781 C 48.097656 94.988281 48.617188 93.640625 49.097656 96.160156 C 49.746094 99.320312 52.863281 98.542969 52.863281 95.246094 C 52.863281 91.390625 48.234375 89.527344 45.457031 92.261719 Z M 50.875 92.863281 C 51.957031 93.640625 52.085938 96.761719 51.042969 96.984375 C 50.484375 97.0625 50.308594 96.761719 50.179688 95.464844 C 50.050781 93.902344 49.964844 93.8125 48.539062 93.8125 L 47.015625 93.8125 L 46.886719 98.714844 C 46.761719 103.4375 46.800781 103.609375 47.753906 103.957031 C 49.097656 104.476562 50.265625 103.789062 50.265625 102.484375 C 50.265625 101.660156 50.484375 101.402344 51.179688 101.402344 C 52 101.402344 52.085938 101.570312 51.828125 102.785156 C 51.484375 104.5625 50.527344 105.300781 48.578125 105.300781 C 45.890625 105.300781 45.5 104.515625 45.5 98.886719 C 45.5 94.859375 45.632812 93.734375 46.238281 93.082031 C 47.058594 92.167969 49.746094 92.042969 50.875 92.863281 Z M 50.875 92.863281 "/>
<path style=" stroke:none;fill-rule:nonzero;fill:rgb(0%,0%,0%);fill-opacity:1;" d="M 56.335938 91.304688 C 53.949219 91.738281 53.734375 92.339844 53.734375 98.761719 C 53.734375 103.390625 53.863281 104.863281 54.429688 105.644531 C 55.207031 106.8125 55.988281 106.859375 56.894531 105.820312 C 57.503906 105.167969 57.636719 104.085938 57.636719 100.617188 C 57.636719 96.238281 57.847656 95.550781 58.976562 96.890625 C 59.28125 97.242188 59.886719 97.457031 60.320312 97.367188 C 61.011719 97.152344 61.097656 97.457031 61.097656 100.140625 C 61.097656 104.957031 62.359375 106.597656 65.996094 106.597656 C 67.640625 106.597656 68.117188 106.386719 69.070312 105.261719 C 70.160156 104 70.199219 103.695312 70.199219 98.714844 C 70.199219 93.558594 70.199219 93.511719 68.941406 92.261719 C 67.082031 90.4375 63.660156 90.609375 62.1875 92.605469 C 61.792969 93.125 61.539062 92.988281 60.707031 92.125 C 59.667969 91 58.804688 90.867188 56.335938 91.304688 Z M 55.941406 93.253906 L 55.941406 94.25 L 56.636719 93.253906 C 57.9375 91.390625 60.664062 92.691406 60.664062 95.207031 C 60.664062 96.636719 59.457031 96.457031 59.28125 94.988281 C 59.191406 94.164062 58.890625 93.773438 58.195312 93.6875 C 56.765625 93.46875 56.335938 95.03125 56.335938 100.578125 C 56.335938 104.476562 56.207031 105.300781 55.6875 105.300781 C 55.117188 105.300781 55.039062 104.304688 55.039062 98.800781 C 55.039062 94.765625 55.207031 92.300781 55.460938 92.300781 C 55.726562 92.300781 55.902344 92.734375 55.941406 93.253906 Z M 68.117188 93.035156 C 68.765625 93.640625 68.902344 94.421875 68.902344 98.839844 C 68.902344 104.691406 68.597656 105.300781 65.820312 105.300781 C 62.875 105.300781 62.402344 104.390625 62.402344 98.800781 C 62.402344 94.597656 62.488281 93.945312 63.265625 93.164062 C 64.347656 92.085938 66.988281 91.996094 68.117188 93.035156 Z M 68.117188 93.035156 "/>
<path style=" stroke:none;fill-rule:nonzero;fill:rgb(0%,0%,0%);fill-opacity:1;" d="M 63.957031 94.25 C 63.613281 95.246094 63.660156 102.832031 64.042969 103.390625 C 64.523438 104.132812 65.5625 104.347656 66.644531 103.957031 C 67.597656 103.609375 67.640625 103.4375 67.511719 98.714844 L 67.386719 93.8125 L 65.820312 93.6875 C 64.695312 93.597656 64.179688 93.734375 63.957031 94.25 Z M 66.300781 98.800781 C 66.300781 101.097656 66.125 102.699219 65.863281 102.699219 C 65.609375 102.699219 65.4375 101.097656 65.4375 98.800781 C 65.4375 96.503906 65.609375 94.902344 65.863281 94.902344 C 66.125 94.902344 66.300781 96.503906 66.300781 98.800781 Z M 66.300781 98.800781 "/>
<path style=" stroke:none;fill-rule:nonzero;fill:rgb(0%,0%,0%);fill-opacity:1;" d="M 72.410156 91.691406 C 71.542969 92.300781 71.5 92.734375 71.5 98.761719 C 71.5 104.4375 71.585938 105.261719 72.28125 105.863281 C 72.714844 106.292969 73.320312 106.597656 73.582031 106.597656 C 74.492188 106.597656 75.402344 104.691406 75.402344 102.832031 C 75.402344 101.441406 75.570312 100.960938 76.050781 100.960938 C 76.527344 100.960938 76.699219 101.488281 76.699219 103.003906 C 76.699219 105.429688 77.042969 106.125 78.347656 106.386719 C 80.082031 106.6875 80.511719 105.214844 80.558594 98.761719 C 80.597656 93.164062 80.558594 92.820312 79.605469 91.957031 C 78.691406 91.085938 78.515625 91.042969 77.652344 91.691406 C 76.875 92.214844 76.699219 92.777344 76.699219 94.507812 C 76.699219 96.113281 76.527344 96.636719 76.050781 96.636719 C 75.570312 96.636719 75.402344 96.160156 75.402344 94.859375 C 75.402344 91.863281 74.140625 90.523438 72.410156 91.691406 Z M 74.097656 95.246094 L 74.097656 98.191406 L 75.964844 98.109375 L 77.789062 98.015625 L 77.828125 95.292969 C 77.867188 93.082031 78.042969 92.472656 78.609375 92.386719 C 79.214844 92.261719 79.300781 92.949219 79.300781 98.800781 C 79.300781 104.691406 79.214844 105.339844 78.5625 105.214844 C 77.957031 105.125 77.867188 104.609375 77.957031 102.136719 L 78.042969 99.234375 L 74.097656 99.234375 L 74.097656 102.265625 C 74.097656 104.691406 73.96875 105.300781 73.449219 105.300781 C 72.886719 105.300781 72.800781 104.304688 72.800781 98.800781 C 72.800781 93.292969 72.886719 92.300781 73.449219 92.300781 C 73.96875 92.300781 74.097656 92.910156 74.097656 95.246094 Z M 74.097656 95.246094 "/>
<path style=" stroke:none;fill-rule:nonzero;fill:rgb(0%,0%,0%);fill-opacity:1;" d="M 83.027344 92.125 C 81.8125 93.386719 81.460938 96.027344 82.375 96.9375 C 82.722656 97.289062 82.679688 97.671875 82.160156 98.410156 C 80.773438 100.402344 81.460938 104.957031 83.375 106.253906 C 84.109375 106.773438 87.011719 106.640625 87.359375 106.125 C 87.539062 105.777344 87.75 105.777344 88.097656 106.125 C 88.441406 106.46875 88.792969 106.386719 89.355469 105.863281 C 90.042969 105.261719 90.136719 104.4375 90.136719 99.363281 L 90.136719 93.511719 L 88.875 92.261719 C 87.140625 90.5625 84.671875 90.484375 83.027344 92.125 Z M 88.226562 92.910156 C 88.964844 93.46875 89.050781 94.164062 89.179688 99.410156 C 89.265625 103.042969 89.179688 105.300781 88.917969 105.300781 C 88.707031 105.300781 88.359375 104.996094 88.226562 104.609375 C 88.007812 104 87.921875 104 87.273438 104.609375 C 86.410156 105.472656 84.328125 105.515625 83.457031 104.609375 C 82.984375 104.171875 82.765625 103.136719 82.765625 101.613281 C 82.765625 98.886719 83.679688 97.9375 86.234375 97.9375 L 87.792969 97.9375 L 87.539062 95.855469 C 87.3125 93.945312 87.234375 93.8125 85.929688 93.6875 C 84.542969 93.558594 84.457031 93.640625 84.328125 95.335938 C 84.289062 95.679688 83.9375 96.027344 83.503906 96.113281 C 82.464844 96.332031 82.511719 94.292969 83.636719 93.164062 C 84.671875 92.125 86.96875 91.996094 88.226562 92.910156 Z M 86.234375 95.765625 C 86.234375 96.238281 85.972656 96.636719 85.625 96.636719 C 85.238281 96.636719 85.109375 96.332031 85.238281 95.765625 C 85.363281 95.292969 85.625 94.902344 85.839844 94.902344 C 86.058594 94.902344 86.234375 95.292969 86.234375 95.765625 Z M 86.234375 95.765625 "/>
<path style=" stroke:none;fill-rule:nonzero;fill:rgb(0%,0%,0%);fill-opacity:1;" d="M 84.367188 99.535156 C 83.808594 100.097656 84.0625 103.4375 84.710938 104 C 85.238281 104.4375 85.585938 104.390625 86.410156 103.867188 C 87.1875 103.347656 87.492188 102.699219 87.617188 101.1875 L 87.75 99.234375 L 86.191406 99.234375 C 85.320312 99.234375 84.5 99.363281 84.367188 99.535156 Z M 86.234375 101.613281 C 86.234375 102.222656 86.058594 102.699219 85.800781 102.699219 C 85.585938 102.699219 85.363281 102.222656 85.363281 101.613281 C 85.363281 101.007812 85.585938 100.539062 85.800781 100.539062 C 86.058594 100.539062 86.234375 101.007812 86.234375 101.613281 Z M 86.234375 101.613281 "/>
<path style=" stroke:none;fill-rule:nonzero;fill:rgb(0%,0%,0%);fill-opacity:1;" d="M 93.8125 91.304688 C 91.652344 91.609375 91.4375 92.339844 91.4375 98.800781 C 91.4375 103.390625 91.5625 104.863281 92.125 105.644531 C 92.949219 106.859375 93.8125 106.859375 94.640625 105.644531 C 95.160156 104.910156 95.335938 103.5625 95.335938 100.1875 C 95.335938 95.679688 95.335938 95.679688 96.160156 96.679688 C 96.847656 97.585938 97.109375 97.632812 98.109375 97.152344 L 99.234375 96.636719 L 99.234375 100.921875 C 99.234375 105.949219 99.625 106.597656 102.832031 106.597656 C 104.304688 106.597656 105.125 106.339844 106.125 105.472656 L 107.460938 104.347656 L 107.460938 98.839844 C 107.460938 93.558594 107.421875 93.253906 106.429688 92.339844 C 104.957031 90.957031 100.960938 90.652344 99.886719 91.863281 C 99.144531 92.691406 99.105469 92.691406 98.015625 91.863281 C 96.984375 91 96.457031 90.957031 93.8125 91.304688 Z M 93.597656 93.511719 C 93.597656 94.078125 93.734375 94.039062 94.292969 93.253906 C 95.03125 92.214844 96.71875 91.996094 97.367188 92.820312 C 97.632812 93.125 97.9375 94.039062 98.0625 94.765625 C 98.320312 95.984375 98.238281 96.199219 97.5 96.199219 C 96.808594 96.199219 96.636719 95.894531 96.636719 94.902344 C 96.636719 93.902344 96.457031 93.597656 95.765625 93.597656 C 94.382812 93.597656 94.039062 94.988281 94.039062 100.273438 C 94.039062 104.4375 93.902344 105.300781 93.386719 105.300781 C 92.820312 105.300781 92.734375 104.304688 92.734375 98.761719 C 92.734375 94.554688 92.910156 92.339844 93.164062 92.515625 C 93.429688 92.644531 93.597656 93.125 93.597656 93.511719 Z M 105.863281 93.511719 C 106.46875 94.078125 106.597656 94.941406 106.597656 98.761719 C 106.597656 101.265625 106.429688 103.5625 106.253906 103.867188 C 105.777344 104.609375 103.742188 105.300781 102.011719 105.300781 L 100.539062 105.300781 L 100.539062 92.429688 L 102.832031 92.644531 C 104.042969 92.734375 105.429688 93.125 105.863281 93.511719 Z M 105.863281 93.511719 "/>
<path style=" stroke:none;fill-rule:nonzero;fill:rgb(0%,0%,0%);fill-opacity:1;" d="M 101.835938 98.800781 L 101.835938 104 L 103.042969 104 C 104.996094 104 105.300781 103.347656 105.300781 98.800781 C 105.300781 94.25 104.996094 93.597656 103.042969 93.597656 L 101.835938 93.597656 Z M 103.4375 101.097656 C 103.347656 102.089844 103.308594 101.140625 103.308594 99.015625 C 103.308594 96.847656 103.347656 96.070312 103.4375 97.195312 C 103.523438 98.320312 103.523438 100.097656 103.4375 101.097656 Z M 103.4375 101.097656 "/>
</g>
</svg>
